M48
; DRILL file {KiCad 9.0.2} date 2025-07-09T12:34:47+0100
; FORMAT={-:-/ absolute / metric / decimal}
; #@! TF.CreationDate,2025-07-09T12:34:47+01:00
; #@! TF.GenerationSoftware,Kicad,Pcbnew,9.0.2
; #@! TF.FileFunction,MixedPlating,1,2
FMAT,2
METRIC
; #@! TA.AperFunction,Plated,PTH,ComponentDrill
T1C0.800
; #@! TA.AperFunction,Plated,PTH,ComponentDrill
T2C1.000
; #@! TA.AperFunction,NonPlated,NPTH,ComponentDrill
T3C3.200
%
G90
G05
T1
X179.11Y-93.98
X180.34Y-79.248
X180.34Y-86.868
X180.975Y-67.35
X180.975Y-69.85
X181.55Y-50.73
X181.55Y-58.35
X181.61Y-93.98
X182.245Y-102.235
X182.245Y-109.855
X189.992Y-116.84
X190.5Y-58.42
X190.5Y-60.96
X190.5Y-63.5
X190.5Y-66.04
X190.5Y-68.58
X190.5Y-71.12
X190.5Y-73.82
X190.5Y-76.2
X190.5Y-78.74
X190.5Y-81.28
X190.5Y-83.82
X190.5Y-86.36
X190.5Y-88.9
X190.5Y-91.44
X190.5Y-93.98
X193.08Y-111.76
X195.58Y-111.76
X197.612Y-116.84
X201.422Y-116.332
X208.32Y-111.252
X209.042Y-116.332
X210.82Y-111.252
X215.9Y-58.42
X215.9Y-60.96
X215.9Y-63.5
X215.9Y-66.04
X215.9Y-68.58
X215.9Y-71.12
X215.9Y-73.82
X215.9Y-76.2
X215.9Y-78.74
X215.9Y-81.28
X215.9Y-83.82
X215.9Y-86.36
X215.9Y-88.9
X215.9Y-91.44
X215.9Y-93.98
T2
X168.275Y-50.8
X168.275Y-55.88
X168.275Y-60.96
X168.275Y-68.58
X168.275Y-73.66
X168.275Y-81.28
X168.275Y-86.36
X168.275Y-91.44
X168.275Y-100.965
X168.275Y-106.045
X168.35Y-114.27
X168.35Y-119.35
X193.548Y-124.46
X198.628Y-124.46
X203.708Y-124.46
T3
X167.005Y-41.91
X167.005Y-128.905
X215.9Y-41.91
X215.9Y-128.905
M30
