%TF.GenerationSoftware,KiCad,Pcbnew,9.0.2*%
%TF.CreationDate,2025-07-10T18:49:31+01:00*%
%TF.ProjectId,Temperature-Controller,54656d70-6572-4617-9475-72652d436f6e,rev?*%
%TF.SameCoordinates,Original*%
%TF.FileFunction,Drillmap*%
%TF.FilePolarity,Positive*%
%FSLAX45Y45*%
G04 Gerber Fmt 4.5, Leading zero omitted, Abs format (unit mm)*
G04 Created by KiCad (PCBNEW 9.0.2) date 2025-07-10 18:49:31*
%MOMM*%
%LPD*%
G01*
G04 APERTURE LIST*
%ADD10C,0.050000*%
%ADD11C,0.200000*%
%ADD12C,0.320000*%
G04 APERTURE END LIST*
D10*
X16055000Y-13415000D02*
X16055000Y-3575000D01*
X16055000Y-3575000D02*
X16095000Y-3575000D01*
X22655000Y-3575000D02*
X22655000Y-13415000D01*
X22655000Y-13415000D02*
X16055000Y-13415000D01*
X16095000Y-3575000D02*
X22655000Y-3575000D01*
D11*
D12*
X16540500Y-4031000D02*
X16860500Y-4351000D01*
X16860500Y-4031000D02*
X16540500Y-4351000D01*
X16540500Y-12730500D02*
X16860500Y-13050500D01*
X16860500Y-12730500D02*
X16540500Y-13050500D01*
X21430000Y-4031000D02*
X21750000Y-4351000D01*
X21750000Y-4031000D02*
X21430000Y-4351000D01*
X21430000Y-12730500D02*
X21750000Y-13050500D01*
X21750000Y-12730500D02*
X21430000Y-13050500D01*
D11*
X16313277Y-13728984D02*
X16313277Y-13528984D01*
X16313277Y-13528984D02*
X16360896Y-13528984D01*
X16360896Y-13528984D02*
X16389467Y-13538508D01*
X16389467Y-13538508D02*
X16408515Y-13557555D01*
X16408515Y-13557555D02*
X16418039Y-13576603D01*
X16418039Y-13576603D02*
X16427562Y-13614698D01*
X16427562Y-13614698D02*
X16427562Y-13643269D01*
X16427562Y-13643269D02*
X16418039Y-13681365D01*
X16418039Y-13681365D02*
X16408515Y-13700412D01*
X16408515Y-13700412D02*
X16389467Y-13719460D01*
X16389467Y-13719460D02*
X16360896Y-13728984D01*
X16360896Y-13728984D02*
X16313277Y-13728984D01*
X16513277Y-13728984D02*
X16513277Y-13595650D01*
X16513277Y-13633746D02*
X16522801Y-13614698D01*
X16522801Y-13614698D02*
X16532324Y-13605174D01*
X16532324Y-13605174D02*
X16551372Y-13595650D01*
X16551372Y-13595650D02*
X16570420Y-13595650D01*
X16637086Y-13728984D02*
X16637086Y-13595650D01*
X16637086Y-13528984D02*
X16627562Y-13538508D01*
X16627562Y-13538508D02*
X16637086Y-13548031D01*
X16637086Y-13548031D02*
X16646610Y-13538508D01*
X16646610Y-13538508D02*
X16637086Y-13528984D01*
X16637086Y-13528984D02*
X16637086Y-13548031D01*
X16760896Y-13728984D02*
X16741848Y-13719460D01*
X16741848Y-13719460D02*
X16732324Y-13700412D01*
X16732324Y-13700412D02*
X16732324Y-13528984D01*
X16865658Y-13728984D02*
X16846610Y-13719460D01*
X16846610Y-13719460D02*
X16837086Y-13700412D01*
X16837086Y-13700412D02*
X16837086Y-13528984D01*
X17094229Y-13728984D02*
X17094229Y-13528984D01*
X17094229Y-13528984D02*
X17160896Y-13671841D01*
X17160896Y-13671841D02*
X17227563Y-13528984D01*
X17227563Y-13528984D02*
X17227563Y-13728984D01*
X17408515Y-13728984D02*
X17408515Y-13624222D01*
X17408515Y-13624222D02*
X17398991Y-13605174D01*
X17398991Y-13605174D02*
X17379944Y-13595650D01*
X17379944Y-13595650D02*
X17341848Y-13595650D01*
X17341848Y-13595650D02*
X17322801Y-13605174D01*
X17408515Y-13719460D02*
X17389467Y-13728984D01*
X17389467Y-13728984D02*
X17341848Y-13728984D01*
X17341848Y-13728984D02*
X17322801Y-13719460D01*
X17322801Y-13719460D02*
X17313277Y-13700412D01*
X17313277Y-13700412D02*
X17313277Y-13681365D01*
X17313277Y-13681365D02*
X17322801Y-13662317D01*
X17322801Y-13662317D02*
X17341848Y-13652793D01*
X17341848Y-13652793D02*
X17389467Y-13652793D01*
X17389467Y-13652793D02*
X17408515Y-13643269D01*
X17503753Y-13595650D02*
X17503753Y-13795650D01*
X17503753Y-13605174D02*
X17522801Y-13595650D01*
X17522801Y-13595650D02*
X17560896Y-13595650D01*
X17560896Y-13595650D02*
X17579944Y-13605174D01*
X17579944Y-13605174D02*
X17589467Y-13614698D01*
X17589467Y-13614698D02*
X17598991Y-13633746D01*
X17598991Y-13633746D02*
X17598991Y-13690888D01*
X17598991Y-13690888D02*
X17589467Y-13709936D01*
X17589467Y-13709936D02*
X17579944Y-13719460D01*
X17579944Y-13719460D02*
X17560896Y-13728984D01*
X17560896Y-13728984D02*
X17522801Y-13728984D01*
X17522801Y-13728984D02*
X17503753Y-13719460D01*
X17684705Y-13709936D02*
X17694229Y-13719460D01*
X17694229Y-13719460D02*
X17684705Y-13728984D01*
X17684705Y-13728984D02*
X17675182Y-13719460D01*
X17675182Y-13719460D02*
X17684705Y-13709936D01*
X17684705Y-13709936D02*
X17684705Y-13728984D01*
X17684705Y-13605174D02*
X17694229Y-13614698D01*
X17694229Y-13614698D02*
X17684705Y-13624222D01*
X17684705Y-13624222D02*
X17675182Y-13614698D01*
X17675182Y-13614698D02*
X17684705Y-13605174D01*
X17684705Y-13605174D02*
X17684705Y-13624222D01*
X15852500Y-13957500D02*
X16052500Y-14157500D01*
X16052500Y-13957500D02*
X15852500Y-14157500D01*
X16294229Y-13948984D02*
X16418039Y-13948984D01*
X16418039Y-13948984D02*
X16351372Y-14025174D01*
X16351372Y-14025174D02*
X16379943Y-14025174D01*
X16379943Y-14025174D02*
X16398991Y-14034698D01*
X16398991Y-14034698D02*
X16408515Y-14044222D01*
X16408515Y-14044222D02*
X16418039Y-14063269D01*
X16418039Y-14063269D02*
X16418039Y-14110888D01*
X16418039Y-14110888D02*
X16408515Y-14129936D01*
X16408515Y-14129936D02*
X16398991Y-14139460D01*
X16398991Y-14139460D02*
X16379943Y-14148984D01*
X16379943Y-14148984D02*
X16322801Y-14148984D01*
X16322801Y-14148984D02*
X16303753Y-14139460D01*
X16303753Y-14139460D02*
X16294229Y-14129936D01*
X16503753Y-14129936D02*
X16513277Y-14139460D01*
X16513277Y-14139460D02*
X16503753Y-14148984D01*
X16503753Y-14148984D02*
X16494229Y-14139460D01*
X16494229Y-14139460D02*
X16503753Y-14129936D01*
X16503753Y-14129936D02*
X16503753Y-14148984D01*
X16589467Y-13968031D02*
X16598991Y-13958508D01*
X16598991Y-13958508D02*
X16618039Y-13948984D01*
X16618039Y-13948984D02*
X16665658Y-13948984D01*
X16665658Y-13948984D02*
X16684705Y-13958508D01*
X16684705Y-13958508D02*
X16694229Y-13968031D01*
X16694229Y-13968031D02*
X16703753Y-13987079D01*
X16703753Y-13987079D02*
X16703753Y-14006127D01*
X16703753Y-14006127D02*
X16694229Y-14034698D01*
X16694229Y-14034698D02*
X16579943Y-14148984D01*
X16579943Y-14148984D02*
X16703753Y-14148984D01*
X16827563Y-13948984D02*
X16846610Y-13948984D01*
X16846610Y-13948984D02*
X16865658Y-13958508D01*
X16865658Y-13958508D02*
X16875182Y-13968031D01*
X16875182Y-13968031D02*
X16884705Y-13987079D01*
X16884705Y-13987079D02*
X16894229Y-14025174D01*
X16894229Y-14025174D02*
X16894229Y-14072793D01*
X16894229Y-14072793D02*
X16884705Y-14110888D01*
X16884705Y-14110888D02*
X16875182Y-14129936D01*
X16875182Y-14129936D02*
X16865658Y-14139460D01*
X16865658Y-14139460D02*
X16846610Y-14148984D01*
X16846610Y-14148984D02*
X16827563Y-14148984D01*
X16827563Y-14148984D02*
X16808515Y-14139460D01*
X16808515Y-14139460D02*
X16798991Y-14129936D01*
X16798991Y-14129936D02*
X16789467Y-14110888D01*
X16789467Y-14110888D02*
X16779944Y-14072793D01*
X16779944Y-14072793D02*
X16779944Y-14025174D01*
X16779944Y-14025174D02*
X16789467Y-13987079D01*
X16789467Y-13987079D02*
X16798991Y-13968031D01*
X16798991Y-13968031D02*
X16808515Y-13958508D01*
X16808515Y-13958508D02*
X16827563Y-13948984D01*
X17018039Y-13948984D02*
X17037086Y-13948984D01*
X17037086Y-13948984D02*
X17056134Y-13958508D01*
X17056134Y-13958508D02*
X17065658Y-13968031D01*
X17065658Y-13968031D02*
X17075182Y-13987079D01*
X17075182Y-13987079D02*
X17084705Y-14025174D01*
X17084705Y-14025174D02*
X17084705Y-14072793D01*
X17084705Y-14072793D02*
X17075182Y-14110888D01*
X17075182Y-14110888D02*
X17065658Y-14129936D01*
X17065658Y-14129936D02*
X17056134Y-14139460D01*
X17056134Y-14139460D02*
X17037086Y-14148984D01*
X17037086Y-14148984D02*
X17018039Y-14148984D01*
X17018039Y-14148984D02*
X16998991Y-14139460D01*
X16998991Y-14139460D02*
X16989467Y-14129936D01*
X16989467Y-14129936D02*
X16979944Y-14110888D01*
X16979944Y-14110888D02*
X16970420Y-14072793D01*
X16970420Y-14072793D02*
X16970420Y-14025174D01*
X16970420Y-14025174D02*
X16979944Y-13987079D01*
X16979944Y-13987079D02*
X16989467Y-13968031D01*
X16989467Y-13968031D02*
X16998991Y-13958508D01*
X16998991Y-13958508D02*
X17018039Y-13948984D01*
X17170420Y-14148984D02*
X17170420Y-14015650D01*
X17170420Y-14034698D02*
X17179944Y-14025174D01*
X17179944Y-14025174D02*
X17198991Y-14015650D01*
X17198991Y-14015650D02*
X17227563Y-14015650D01*
X17227563Y-14015650D02*
X17246610Y-14025174D01*
X17246610Y-14025174D02*
X17256134Y-14044222D01*
X17256134Y-14044222D02*
X17256134Y-14148984D01*
X17256134Y-14044222D02*
X17265658Y-14025174D01*
X17265658Y-14025174D02*
X17284705Y-14015650D01*
X17284705Y-14015650D02*
X17313277Y-14015650D01*
X17313277Y-14015650D02*
X17332325Y-14025174D01*
X17332325Y-14025174D02*
X17341848Y-14044222D01*
X17341848Y-14044222D02*
X17341848Y-14148984D01*
X17437086Y-14148984D02*
X17437086Y-14015650D01*
X17437086Y-14034698D02*
X17446610Y-14025174D01*
X17446610Y-14025174D02*
X17465658Y-14015650D01*
X17465658Y-14015650D02*
X17494229Y-14015650D01*
X17494229Y-14015650D02*
X17513277Y-14025174D01*
X17513277Y-14025174D02*
X17522801Y-14044222D01*
X17522801Y-14044222D02*
X17522801Y-14148984D01*
X17522801Y-14044222D02*
X17532325Y-14025174D01*
X17532325Y-14025174D02*
X17551372Y-14015650D01*
X17551372Y-14015650D02*
X17579944Y-14015650D01*
X17579944Y-14015650D02*
X17598991Y-14025174D01*
X17598991Y-14025174D02*
X17608515Y-14044222D01*
X17608515Y-14044222D02*
X17608515Y-14148984D01*
X17998991Y-13939460D02*
X17827563Y-14196603D01*
X18256134Y-13948984D02*
X18275182Y-13948984D01*
X18275182Y-13948984D02*
X18294229Y-13958508D01*
X18294229Y-13958508D02*
X18303753Y-13968031D01*
X18303753Y-13968031D02*
X18313277Y-13987079D01*
X18313277Y-13987079D02*
X18322801Y-14025174D01*
X18322801Y-14025174D02*
X18322801Y-14072793D01*
X18322801Y-14072793D02*
X18313277Y-14110888D01*
X18313277Y-14110888D02*
X18303753Y-14129936D01*
X18303753Y-14129936D02*
X18294229Y-14139460D01*
X18294229Y-14139460D02*
X18275182Y-14148984D01*
X18275182Y-14148984D02*
X18256134Y-14148984D01*
X18256134Y-14148984D02*
X18237087Y-14139460D01*
X18237087Y-14139460D02*
X18227563Y-14129936D01*
X18227563Y-14129936D02*
X18218039Y-14110888D01*
X18218039Y-14110888D02*
X18208515Y-14072793D01*
X18208515Y-14072793D02*
X18208515Y-14025174D01*
X18208515Y-14025174D02*
X18218039Y-13987079D01*
X18218039Y-13987079D02*
X18227563Y-13968031D01*
X18227563Y-13968031D02*
X18237087Y-13958508D01*
X18237087Y-13958508D02*
X18256134Y-13948984D01*
X18408515Y-14129936D02*
X18418039Y-14139460D01*
X18418039Y-14139460D02*
X18408515Y-14148984D01*
X18408515Y-14148984D02*
X18398991Y-14139460D01*
X18398991Y-14139460D02*
X18408515Y-14129936D01*
X18408515Y-14129936D02*
X18408515Y-14148984D01*
X18608515Y-14148984D02*
X18494229Y-14148984D01*
X18551372Y-14148984D02*
X18551372Y-13948984D01*
X18551372Y-13948984D02*
X18532325Y-13977555D01*
X18532325Y-13977555D02*
X18513277Y-13996603D01*
X18513277Y-13996603D02*
X18494229Y-14006127D01*
X18684706Y-13968031D02*
X18694229Y-13958508D01*
X18694229Y-13958508D02*
X18713277Y-13948984D01*
X18713277Y-13948984D02*
X18760896Y-13948984D01*
X18760896Y-13948984D02*
X18779944Y-13958508D01*
X18779944Y-13958508D02*
X18789468Y-13968031D01*
X18789468Y-13968031D02*
X18798991Y-13987079D01*
X18798991Y-13987079D02*
X18798991Y-14006127D01*
X18798991Y-14006127D02*
X18789468Y-14034698D01*
X18789468Y-14034698D02*
X18675182Y-14148984D01*
X18675182Y-14148984D02*
X18798991Y-14148984D01*
X18970420Y-13948984D02*
X18932325Y-13948984D01*
X18932325Y-13948984D02*
X18913277Y-13958508D01*
X18913277Y-13958508D02*
X18903753Y-13968031D01*
X18903753Y-13968031D02*
X18884706Y-13996603D01*
X18884706Y-13996603D02*
X18875182Y-14034698D01*
X18875182Y-14034698D02*
X18875182Y-14110888D01*
X18875182Y-14110888D02*
X18884706Y-14129936D01*
X18884706Y-14129936D02*
X18894229Y-14139460D01*
X18894229Y-14139460D02*
X18913277Y-14148984D01*
X18913277Y-14148984D02*
X18951372Y-14148984D01*
X18951372Y-14148984D02*
X18970420Y-14139460D01*
X18970420Y-14139460D02*
X18979944Y-14129936D01*
X18979944Y-14129936D02*
X18989468Y-14110888D01*
X18989468Y-14110888D02*
X18989468Y-14063269D01*
X18989468Y-14063269D02*
X18979944Y-14044222D01*
X18979944Y-14044222D02*
X18970420Y-14034698D01*
X18970420Y-14034698D02*
X18951372Y-14025174D01*
X18951372Y-14025174D02*
X18913277Y-14025174D01*
X18913277Y-14025174D02*
X18894229Y-14034698D01*
X18894229Y-14034698D02*
X18884706Y-14044222D01*
X18884706Y-14044222D02*
X18875182Y-14063269D01*
X19113277Y-13948984D02*
X19132325Y-13948984D01*
X19132325Y-13948984D02*
X19151372Y-13958508D01*
X19151372Y-13958508D02*
X19160896Y-13968031D01*
X19160896Y-13968031D02*
X19170420Y-13987079D01*
X19170420Y-13987079D02*
X19179944Y-14025174D01*
X19179944Y-14025174D02*
X19179944Y-14072793D01*
X19179944Y-14072793D02*
X19170420Y-14110888D01*
X19170420Y-14110888D02*
X19160896Y-14129936D01*
X19160896Y-14129936D02*
X19151372Y-14139460D01*
X19151372Y-14139460D02*
X19132325Y-14148984D01*
X19132325Y-14148984D02*
X19113277Y-14148984D01*
X19113277Y-14148984D02*
X19094229Y-14139460D01*
X19094229Y-14139460D02*
X19084706Y-14129936D01*
X19084706Y-14129936D02*
X19075182Y-14110888D01*
X19075182Y-14110888D02*
X19065658Y-14072793D01*
X19065658Y-14072793D02*
X19065658Y-14025174D01*
X19065658Y-14025174D02*
X19075182Y-13987079D01*
X19075182Y-13987079D02*
X19084706Y-13968031D01*
X19084706Y-13968031D02*
X19094229Y-13958508D01*
X19094229Y-13958508D02*
X19113277Y-13948984D01*
X19256134Y-13948984D02*
X19256134Y-13987079D01*
X19332325Y-13948984D02*
X19332325Y-13987079D01*
X19627563Y-14225174D02*
X19618039Y-14215650D01*
X19618039Y-14215650D02*
X19598991Y-14187079D01*
X19598991Y-14187079D02*
X19589468Y-14168031D01*
X19589468Y-14168031D02*
X19579944Y-14139460D01*
X19579944Y-14139460D02*
X19570420Y-14091841D01*
X19570420Y-14091841D02*
X19570420Y-14053746D01*
X19570420Y-14053746D02*
X19579944Y-14006127D01*
X19579944Y-14006127D02*
X19589468Y-13977555D01*
X19589468Y-13977555D02*
X19598991Y-13958508D01*
X19598991Y-13958508D02*
X19618039Y-13929936D01*
X19618039Y-13929936D02*
X19627563Y-13920412D01*
X19789468Y-14015650D02*
X19789468Y-14148984D01*
X19741849Y-13939460D02*
X19694230Y-14082317D01*
X19694230Y-14082317D02*
X19818039Y-14082317D01*
X20046611Y-14148984D02*
X20046611Y-13948984D01*
X20132325Y-14148984D02*
X20132325Y-14044222D01*
X20132325Y-14044222D02*
X20122801Y-14025174D01*
X20122801Y-14025174D02*
X20103753Y-14015650D01*
X20103753Y-14015650D02*
X20075182Y-14015650D01*
X20075182Y-14015650D02*
X20056134Y-14025174D01*
X20056134Y-14025174D02*
X20046611Y-14034698D01*
X20256134Y-14148984D02*
X20237087Y-14139460D01*
X20237087Y-14139460D02*
X20227563Y-14129936D01*
X20227563Y-14129936D02*
X20218039Y-14110888D01*
X20218039Y-14110888D02*
X20218039Y-14053746D01*
X20218039Y-14053746D02*
X20227563Y-14034698D01*
X20227563Y-14034698D02*
X20237087Y-14025174D01*
X20237087Y-14025174D02*
X20256134Y-14015650D01*
X20256134Y-14015650D02*
X20284706Y-14015650D01*
X20284706Y-14015650D02*
X20303753Y-14025174D01*
X20303753Y-14025174D02*
X20313277Y-14034698D01*
X20313277Y-14034698D02*
X20322801Y-14053746D01*
X20322801Y-14053746D02*
X20322801Y-14110888D01*
X20322801Y-14110888D02*
X20313277Y-14129936D01*
X20313277Y-14129936D02*
X20303753Y-14139460D01*
X20303753Y-14139460D02*
X20284706Y-14148984D01*
X20284706Y-14148984D02*
X20256134Y-14148984D01*
X20437087Y-14148984D02*
X20418039Y-14139460D01*
X20418039Y-14139460D02*
X20408515Y-14120412D01*
X20408515Y-14120412D02*
X20408515Y-13948984D01*
X20589468Y-14139460D02*
X20570420Y-14148984D01*
X20570420Y-14148984D02*
X20532325Y-14148984D01*
X20532325Y-14148984D02*
X20513277Y-14139460D01*
X20513277Y-14139460D02*
X20503753Y-14120412D01*
X20503753Y-14120412D02*
X20503753Y-14044222D01*
X20503753Y-14044222D02*
X20513277Y-14025174D01*
X20513277Y-14025174D02*
X20532325Y-14015650D01*
X20532325Y-14015650D02*
X20570420Y-14015650D01*
X20570420Y-14015650D02*
X20589468Y-14025174D01*
X20589468Y-14025174D02*
X20598992Y-14044222D01*
X20598992Y-14044222D02*
X20598992Y-14063269D01*
X20598992Y-14063269D02*
X20503753Y-14082317D01*
X20675182Y-14139460D02*
X20694230Y-14148984D01*
X20694230Y-14148984D02*
X20732325Y-14148984D01*
X20732325Y-14148984D02*
X20751373Y-14139460D01*
X20751373Y-14139460D02*
X20760896Y-14120412D01*
X20760896Y-14120412D02*
X20760896Y-14110888D01*
X20760896Y-14110888D02*
X20751373Y-14091841D01*
X20751373Y-14091841D02*
X20732325Y-14082317D01*
X20732325Y-14082317D02*
X20703753Y-14082317D01*
X20703753Y-14082317D02*
X20684706Y-14072793D01*
X20684706Y-14072793D02*
X20675182Y-14053746D01*
X20675182Y-14053746D02*
X20675182Y-14044222D01*
X20675182Y-14044222D02*
X20684706Y-14025174D01*
X20684706Y-14025174D02*
X20703753Y-14015650D01*
X20703753Y-14015650D02*
X20732325Y-14015650D01*
X20732325Y-14015650D02*
X20751373Y-14025174D01*
X20827563Y-14225174D02*
X20837087Y-14215650D01*
X20837087Y-14215650D02*
X20856134Y-14187079D01*
X20856134Y-14187079D02*
X20865658Y-14168031D01*
X20865658Y-14168031D02*
X20875182Y-14139460D01*
X20875182Y-14139460D02*
X20884706Y-14091841D01*
X20884706Y-14091841D02*
X20884706Y-14053746D01*
X20884706Y-14053746D02*
X20875182Y-14006127D01*
X20875182Y-14006127D02*
X20865658Y-13977555D01*
X20865658Y-13977555D02*
X20856134Y-13958508D01*
X20856134Y-13958508D02*
X20837087Y-13929936D01*
X20837087Y-13929936D02*
X20827563Y-13920412D01*
X21189468Y-14225174D02*
X21179944Y-14215650D01*
X21179944Y-14215650D02*
X21160896Y-14187079D01*
X21160896Y-14187079D02*
X21151373Y-14168031D01*
X21151373Y-14168031D02*
X21141849Y-14139460D01*
X21141849Y-14139460D02*
X21132325Y-14091841D01*
X21132325Y-14091841D02*
X21132325Y-14053746D01*
X21132325Y-14053746D02*
X21141849Y-14006127D01*
X21141849Y-14006127D02*
X21151373Y-13977555D01*
X21151373Y-13977555D02*
X21160896Y-13958508D01*
X21160896Y-13958508D02*
X21179944Y-13929936D01*
X21179944Y-13929936D02*
X21189468Y-13920412D01*
X21265658Y-14015650D02*
X21265658Y-14148984D01*
X21265658Y-14034698D02*
X21275182Y-14025174D01*
X21275182Y-14025174D02*
X21294230Y-14015650D01*
X21294230Y-14015650D02*
X21322801Y-14015650D01*
X21322801Y-14015650D02*
X21341849Y-14025174D01*
X21341849Y-14025174D02*
X21351373Y-14044222D01*
X21351373Y-14044222D02*
X21351373Y-14148984D01*
X21475182Y-14148984D02*
X21456134Y-14139460D01*
X21456134Y-14139460D02*
X21446611Y-14129936D01*
X21446611Y-14129936D02*
X21437087Y-14110888D01*
X21437087Y-14110888D02*
X21437087Y-14053746D01*
X21437087Y-14053746D02*
X21446611Y-14034698D01*
X21446611Y-14034698D02*
X21456134Y-14025174D01*
X21456134Y-14025174D02*
X21475182Y-14015650D01*
X21475182Y-14015650D02*
X21503754Y-14015650D01*
X21503754Y-14015650D02*
X21522801Y-14025174D01*
X21522801Y-14025174D02*
X21532325Y-14034698D01*
X21532325Y-14034698D02*
X21541849Y-14053746D01*
X21541849Y-14053746D02*
X21541849Y-14110888D01*
X21541849Y-14110888D02*
X21532325Y-14129936D01*
X21532325Y-14129936D02*
X21522801Y-14139460D01*
X21522801Y-14139460D02*
X21503754Y-14148984D01*
X21503754Y-14148984D02*
X21475182Y-14148984D01*
X21598992Y-14015650D02*
X21675182Y-14015650D01*
X21627563Y-13948984D02*
X21627563Y-14120412D01*
X21627563Y-14120412D02*
X21637087Y-14139460D01*
X21637087Y-14139460D02*
X21656134Y-14148984D01*
X21656134Y-14148984D02*
X21675182Y-14148984D01*
X21894230Y-14015650D02*
X21894230Y-14215650D01*
X21894230Y-14025174D02*
X21913277Y-14015650D01*
X21913277Y-14015650D02*
X21951373Y-14015650D01*
X21951373Y-14015650D02*
X21970420Y-14025174D01*
X21970420Y-14025174D02*
X21979944Y-14034698D01*
X21979944Y-14034698D02*
X21989468Y-14053746D01*
X21989468Y-14053746D02*
X21989468Y-14110888D01*
X21989468Y-14110888D02*
X21979944Y-14129936D01*
X21979944Y-14129936D02*
X21970420Y-14139460D01*
X21970420Y-14139460D02*
X21951373Y-14148984D01*
X21951373Y-14148984D02*
X21913277Y-14148984D01*
X21913277Y-14148984D02*
X21894230Y-14139460D01*
X22103754Y-14148984D02*
X22084706Y-14139460D01*
X22084706Y-14139460D02*
X22075182Y-14120412D01*
X22075182Y-14120412D02*
X22075182Y-13948984D01*
X22265658Y-14148984D02*
X22265658Y-14044222D01*
X22265658Y-14044222D02*
X22256135Y-14025174D01*
X22256135Y-14025174D02*
X22237087Y-14015650D01*
X22237087Y-14015650D02*
X22198992Y-14015650D01*
X22198992Y-14015650D02*
X22179944Y-14025174D01*
X22265658Y-14139460D02*
X22246611Y-14148984D01*
X22246611Y-14148984D02*
X22198992Y-14148984D01*
X22198992Y-14148984D02*
X22179944Y-14139460D01*
X22179944Y-14139460D02*
X22170420Y-14120412D01*
X22170420Y-14120412D02*
X22170420Y-14101365D01*
X22170420Y-14101365D02*
X22179944Y-14082317D01*
X22179944Y-14082317D02*
X22198992Y-14072793D01*
X22198992Y-14072793D02*
X22246611Y-14072793D01*
X22246611Y-14072793D02*
X22265658Y-14063269D01*
X22332325Y-14015650D02*
X22408515Y-14015650D01*
X22360896Y-13948984D02*
X22360896Y-14120412D01*
X22360896Y-14120412D02*
X22370420Y-14139460D01*
X22370420Y-14139460D02*
X22389468Y-14148984D01*
X22389468Y-14148984D02*
X22408515Y-14148984D01*
X22551373Y-14139460D02*
X22532325Y-14148984D01*
X22532325Y-14148984D02*
X22494230Y-14148984D01*
X22494230Y-14148984D02*
X22475182Y-14139460D01*
X22475182Y-14139460D02*
X22465658Y-14120412D01*
X22465658Y-14120412D02*
X22465658Y-14044222D01*
X22465658Y-14044222D02*
X22475182Y-14025174D01*
X22475182Y-14025174D02*
X22494230Y-14015650D01*
X22494230Y-14015650D02*
X22532325Y-14015650D01*
X22532325Y-14015650D02*
X22551373Y-14025174D01*
X22551373Y-14025174D02*
X22560896Y-14044222D01*
X22560896Y-14044222D02*
X22560896Y-14063269D01*
X22560896Y-14063269D02*
X22465658Y-14082317D01*
X22732325Y-14148984D02*
X22732325Y-13948984D01*
X22732325Y-14139460D02*
X22713277Y-14148984D01*
X22713277Y-14148984D02*
X22675182Y-14148984D01*
X22675182Y-14148984D02*
X22656134Y-14139460D01*
X22656134Y-14139460D02*
X22646611Y-14129936D01*
X22646611Y-14129936D02*
X22637087Y-14110888D01*
X22637087Y-14110888D02*
X22637087Y-14053746D01*
X22637087Y-14053746D02*
X22646611Y-14034698D01*
X22646611Y-14034698D02*
X22656134Y-14025174D01*
X22656134Y-14025174D02*
X22675182Y-14015650D01*
X22675182Y-14015650D02*
X22713277Y-14015650D01*
X22713277Y-14015650D02*
X22732325Y-14025174D01*
X22808515Y-14225174D02*
X22818039Y-14215650D01*
X22818039Y-14215650D02*
X22837087Y-14187079D01*
X22837087Y-14187079D02*
X22846611Y-14168031D01*
X22846611Y-14168031D02*
X22856134Y-14139460D01*
X22856134Y-14139460D02*
X22865658Y-14091841D01*
X22865658Y-14091841D02*
X22865658Y-14053746D01*
X22865658Y-14053746D02*
X22856134Y-14006127D01*
X22856134Y-14006127D02*
X22846611Y-13977555D01*
X22846611Y-13977555D02*
X22837087Y-13958508D01*
X22837087Y-13958508D02*
X22818039Y-13929936D01*
X22818039Y-13929936D02*
X22808515Y-13920412D01*
M02*
