%TF.GenerationSoftware,KiCad,Pcbnew,9.0.2*%
%TF.CreationDate,2025-07-10T18:36:16+01:00*%
%TF.ProjectId,Temperature-Controller,54656d70-6572-4617-9475-72652d436f6e,rev?*%
%TF.SameCoordinates,Original*%
%TF.FileFunction,Copper,L1,Top*%
%TF.FilePolarity,Positive*%
%FSLAX46Y46*%
G04 Gerber Fmt 4.6, Leading zero omitted, Abs format (unit mm)*
G04 Created by KiCad (PCBNEW 9.0.2) date 2025-07-10 18:36:16*
%MOMM*%
%LPD*%
G01*
G04 APERTURE LIST*
G04 Aperture macros list*
%AMRoundRect*
0 Rectangle with rounded corners*
0 $1 Rounding radius*
0 $2 $3 $4 $5 $6 $7 $8 $9 X,Y pos of 4 corners*
0 Add a 4 corners polygon primitive as box body*
4,1,4,$2,$3,$4,$5,$6,$7,$8,$9,$2,$3,0*
0 Add four circle primitives for the rounded corners*
1,1,$1+$1,$2,$3*
1,1,$1+$1,$4,$5*
1,1,$1+$1,$6,$7*
1,1,$1+$1,$8,$9*
0 Add four rect primitives between the rounded corners*
20,1,$1+$1,$2,$3,$4,$5,0*
20,1,$1+$1,$4,$5,$6,$7,0*
20,1,$1+$1,$6,$7,$8,$9,0*
20,1,$1+$1,$8,$9,$2,$3,0*%
G04 Aperture macros list end*
%TA.AperFunction,ComponentPad*%
%ADD10C,2.000000*%
%TD*%
%TA.AperFunction,ComponentPad*%
%ADD11C,1.600000*%
%TD*%
%TA.AperFunction,ComponentPad*%
%ADD12RoundRect,0.250000X0.550000X0.550000X-0.550000X0.550000X-0.550000X-0.550000X0.550000X-0.550000X0*%
%TD*%
%TA.AperFunction,ComponentPad*%
%ADD13C,1.800000*%
%TD*%
%TA.AperFunction,ComponentPad*%
%ADD14C,1.900000*%
%TD*%
%TA.AperFunction,Conductor*%
%ADD15C,0.200000*%
%TD*%
G04 APERTURE END LIST*
D10*
%TO.P,J2,1,Pin_1*%
%TO.N,GND*%
X168275000Y-81280000D03*
%TO.P,J2,2,Pin_2*%
%TO.N,/GPIO26*%
X168275000Y-86360000D03*
%TO.P,J2,3,Pin_3*%
%TO.N,+5V*%
X168275000Y-91440000D03*
%TD*%
D11*
%TO.P,C3,1*%
%TO.N,GND*%
X193080000Y-111760000D03*
%TO.P,C3,2*%
%TO.N,/GPIO33*%
X195580000Y-111760000D03*
%TD*%
D12*
%TO.P,C1,1*%
%TO.N,+5V*%
X181610000Y-93980000D03*
D11*
%TO.P,C1,2*%
%TO.N,GND*%
X179110000Y-93980000D03*
%TD*%
D13*
%TO.P,U1,1,EN*%
%TO.N,unconnected-(U1-EN-Pad1)*%
X190500000Y-58420000D03*
%TO.P,U1,2,Up*%
%TO.N,unconnected-(U1-Up-Pad2)*%
X190500000Y-60960000D03*
%TO.P,U1,3,UN*%
%TO.N,unconnected-(U1-UN-Pad3)*%
X190500000Y-63500000D03*
%TO.P,U1,4,GPIO34*%
%TO.N,unconnected-(U1-GPIO34-Pad4)*%
X190500000Y-66040000D03*
%TO.P,U1,5,GPIO35*%
%TO.N,unconnected-(U1-GPIO35-Pad5)*%
X190500000Y-68580000D03*
D14*
%TO.P,U1,6,GPIO32*%
%TO.N,unconnected-(U1-GPIO32-Pad6)*%
X190500000Y-71120000D03*
D13*
%TO.P,U1,7,GPIO33*%
%TO.N,/GPIO33*%
X190500000Y-73820000D03*
%TO.P,U1,8,GPIO25*%
%TO.N,/GPIO25*%
X190500000Y-76200000D03*
%TO.P,U1,9,GPIO26*%
%TO.N,/GPIO26*%
X190500000Y-81280000D03*
%TO.P,U1,10,GPIO27*%
%TO.N,/GPIO27*%
X190500000Y-78740000D03*
%TO.P,U1,11,GPIO14*%
%TO.N,unconnected-(U1-GPIO14-Pad11)*%
X190500000Y-83820000D03*
%TO.P,U1,12,GPIO12*%
%TO.N,unconnected-(U1-GPIO12-Pad12)*%
X190500000Y-86360000D03*
%TO.P,U1,13,GPIO13*%
%TO.N,unconnected-(U1-GPIO13-Pad13)*%
X190500000Y-88900000D03*
%TO.P,U1,14,GND1*%
%TO.N,GND*%
X190500000Y-91440000D03*
%TO.P,U1,15,VIN*%
%TO.N,+5V*%
X190500000Y-93980000D03*
%TO.P,U1,16,GPIO23*%
%TO.N,unconnected-(U1-GPIO23-Pad16)*%
X215900000Y-58420000D03*
%TO.P,U1,17,GPIO22*%
%TO.N,unconnected-(U1-GPIO22-Pad17)*%
X215900000Y-60960000D03*
%TO.P,U1,18,TX0*%
%TO.N,unconnected-(U1-TX0-Pad18)*%
X215900000Y-63500000D03*
%TO.P,U1,19,RX0*%
%TO.N,unconnected-(U1-RX0-Pad19)*%
X215900000Y-66040000D03*
%TO.P,U1,20,GPIO21*%
%TO.N,unconnected-(U1-GPIO21-Pad20)*%
X215900000Y-68580000D03*
%TO.P,U1,21,GPIO19*%
%TO.N,unconnected-(U1-GPIO19-Pad21)*%
X215900000Y-71120000D03*
%TO.P,U1,22,GPIO18*%
%TO.N,unconnected-(U1-GPIO18-Pad22)*%
X215900000Y-73820000D03*
%TO.P,U1,23,GPIO05*%
%TO.N,unconnected-(U1-GPIO05-Pad23)*%
X215900000Y-76200000D03*
%TO.P,U1,24,TX2*%
%TO.N,unconnected-(U1-TX2-Pad24)*%
X215900000Y-78740000D03*
%TO.P,U1,25,RX2*%
%TO.N,unconnected-(U1-RX2-Pad25)*%
X215900000Y-81280000D03*
%TO.P,U1,26,GPIO04*%
%TO.N,unconnected-(U1-GPIO04-Pad26)*%
X215900000Y-83820000D03*
%TO.P,U1,27,GPIO02*%
%TO.N,unconnected-(U1-GPIO02-Pad27)*%
X215900000Y-86360000D03*
%TO.P,U1,28,GPIO15*%
%TO.N,unconnected-(U1-GPIO15-Pad28)*%
X215900000Y-88900000D03*
%TO.P,U1,29,GND*%
%TO.N,GND*%
X215900000Y-91440000D03*
%TO.P,U1,30,+3V3*%
%TO.N,+3.3V*%
X215900000Y-93980000D03*
%TD*%
D11*
%TO.P,R2,1*%
%TO.N,Net-(J6-Pin_2)*%
X182245000Y-109855000D03*
%TO.P,R2,2*%
%TO.N,+5V*%
X182245000Y-102235000D03*
%TD*%
%TO.P,R1,1*%
%TO.N,Net-(J1-Pin_2)*%
X181550000Y-50730000D03*
%TO.P,R1,2*%
%TO.N,/GPIO25*%
X181550000Y-58350000D03*
%TD*%
%TO.P,C2,1*%
%TO.N,GND*%
X180975000Y-69850000D03*
%TO.P,C2,2*%
%TO.N,+5V*%
X180975000Y-67350000D03*
%TD*%
D10*
%TO.P,J3,1,Pin_1*%
%TO.N,GND*%
X168275000Y-68580000D03*
%TO.P,J3,2,Pin_2*%
%TO.N,/GPIO27*%
X168275000Y-73660000D03*
%TD*%
D11*
%TO.P,C5,1*%
%TO.N,/GPIO33*%
X208320000Y-111252000D03*
%TO.P,C5,2*%
%TO.N,+3.3V*%
X210820000Y-111252000D03*
%TD*%
%TO.P,R3,1*%
%TO.N,+5V*%
X180340000Y-79248000D03*
%TO.P,R3,2*%
%TO.N,/GPIO26*%
X180340000Y-86868000D03*
%TD*%
%TO.P,R4,1*%
%TO.N,/GPIO33*%
X197612000Y-116840000D03*
%TO.P,R4,2*%
%TO.N,GND*%
X189992000Y-116840000D03*
%TD*%
%TO.P,R5,1*%
%TO.N,+3.3V*%
X209042000Y-116332000D03*
%TO.P,R5,2*%
%TO.N,/GPIO33*%
X201422000Y-116332000D03*
%TD*%
D10*
%TO.P,J1,1,Pin_1*%
%TO.N,GND*%
X168275000Y-50800000D03*
%TO.P,J1,2,Pin_2*%
%TO.N,Net-(J1-Pin_2)*%
X168275000Y-55880000D03*
%TO.P,J1,3,Pin_3*%
%TO.N,+5V*%
X168275000Y-60960000D03*
%TD*%
%TO.P,J5,1,Pin_1*%
%TO.N,GND*%
X193548000Y-124460000D03*
%TO.P,J5,2,Pin_2*%
%TO.N,/GPIO33*%
X198628000Y-124460000D03*
%TO.P,J5,3,Pin_3*%
%TO.N,+3.3V*%
X203708000Y-124460000D03*
%TD*%
%TO.P,J4,1,Pin_1*%
%TO.N,GND*%
X168275000Y-100965000D03*
%TO.P,J4,2,Pin_2*%
%TO.N,+5V*%
X168275000Y-106045000D03*
%TD*%
%TO.P,J6,1,Pin_1*%
%TO.N,GND*%
X168350000Y-114270000D03*
%TO.P,J6,2,Pin_2*%
%TO.N,Net-(J6-Pin_2)*%
X168350000Y-119350000D03*
%TD*%
D15*
%TO.N,/GPIO27*%
X168275000Y-73660000D02*
X185420000Y-73660000D01*
%TO.N,/GPIO26*%
X180340000Y-86868000D02*
X184912000Y-86868000D01*
X184912000Y-86868000D02*
X190500000Y-81280000D01*
X168275000Y-86360000D02*
X170180000Y-86360000D01*
X170688000Y-86868000D02*
X180340000Y-86868000D01*
X170180000Y-86360000D02*
X170688000Y-86868000D01*
%TO.N,Net-(J1-Pin_2)*%
X168275000Y-55880000D02*
X173425000Y-50730000D01*
X173425000Y-50730000D02*
X181550000Y-50730000D01*
%TO.N,/GPIO27*%
X185420000Y-73660000D02*
X190500000Y-78740000D01*
%TO.N,/GPIO33*%
X197612000Y-113792000D02*
X195580000Y-111760000D01*
X195580000Y-78900000D02*
X190500000Y-73820000D01*
X200914000Y-116840000D02*
X201422000Y-116332000D01*
X197612000Y-123444000D02*
X197612000Y-116840000D01*
X195580000Y-111760000D02*
X195580000Y-78900000D01*
X198628000Y-124460000D02*
X197612000Y-123444000D01*
X197612000Y-116840000D02*
X197612000Y-113792000D01*
X208320000Y-111252000D02*
X208788000Y-111252000D01*
X203240000Y-116332000D02*
X208320000Y-111252000D01*
X201422000Y-116332000D02*
X203240000Y-116332000D01*
X197612000Y-116840000D02*
X200914000Y-116840000D01*
%TO.N,Net-(J6-Pin_2)*%
X177845000Y-109855000D02*
X182245000Y-109855000D01*
X168350000Y-119350000D02*
X177845000Y-109855000D01*
%TO.N,/GPIO25*%
X185420000Y-71120000D02*
X190500000Y-76200000D01*
X185420000Y-62220000D02*
X185420000Y-71120000D01*
X181550000Y-58350000D02*
X185420000Y-62220000D01*
%TO.N,+3.3V*%
X209042000Y-116332000D02*
X210820000Y-114554000D01*
X210820000Y-111252000D02*
X210820000Y-99060000D01*
X210820000Y-114554000D02*
X210820000Y-111252000D01*
X203708000Y-124460000D02*
X209042000Y-119126000D01*
X210820000Y-99060000D02*
X215900000Y-93980000D01*
X209042000Y-119126000D02*
X209042000Y-116332000D01*
%TD*%
%TA.AperFunction,Conductor*%
%TO.N,+5V*%
G36*
X225992539Y-36270185D02*
G01*
X226038294Y-36322989D01*
X226049500Y-36374500D01*
X226049500Y-133525500D01*
X226029815Y-133592539D01*
X225977011Y-133638294D01*
X225925500Y-133649500D01*
X161174500Y-133649500D01*
X161107461Y-133629815D01*
X161061706Y-133577011D01*
X161050500Y-133525500D01*
X161050500Y-128783711D01*
X165154500Y-128783711D01*
X165154500Y-129026288D01*
X165186161Y-129266785D01*
X165248947Y-129501104D01*
X165341773Y-129725205D01*
X165341776Y-129725212D01*
X165463064Y-129935289D01*
X165463066Y-129935292D01*
X165463067Y-129935293D01*
X165610733Y-130127736D01*
X165610739Y-130127743D01*
X165782256Y-130299260D01*
X165782262Y-130299265D01*
X165974711Y-130446936D01*
X166184788Y-130568224D01*
X166408900Y-130661054D01*
X166643211Y-130723838D01*
X166823586Y-130747584D01*
X166883711Y-130755500D01*
X166883712Y-130755500D01*
X167126289Y-130755500D01*
X167174388Y-130749167D01*
X167366789Y-130723838D01*
X167601100Y-130661054D01*
X167825212Y-130568224D01*
X168035289Y-130446936D01*
X168227738Y-130299265D01*
X168399265Y-130127738D01*
X168546936Y-129935289D01*
X168668224Y-129725212D01*
X168761054Y-129501100D01*
X168823838Y-129266789D01*
X168855500Y-129026288D01*
X168855500Y-128783712D01*
X168855500Y-128783711D01*
X214049500Y-128783711D01*
X214049500Y-129026288D01*
X214081161Y-129266785D01*
X214143947Y-129501104D01*
X214236773Y-129725205D01*
X214236776Y-129725212D01*
X214358064Y-129935289D01*
X214358066Y-129935292D01*
X214358067Y-129935293D01*
X214505733Y-130127736D01*
X214505739Y-130127743D01*
X214677256Y-130299260D01*
X214677262Y-130299265D01*
X214869711Y-130446936D01*
X215079788Y-130568224D01*
X215303900Y-130661054D01*
X215538211Y-130723838D01*
X215718586Y-130747584D01*
X215778711Y-130755500D01*
X215778712Y-130755500D01*
X216021289Y-130755500D01*
X216069388Y-130749167D01*
X216261789Y-130723838D01*
X216496100Y-130661054D01*
X216720212Y-130568224D01*
X216930289Y-130446936D01*
X217122738Y-130299265D01*
X217294265Y-130127738D01*
X217441936Y-129935289D01*
X217563224Y-129725212D01*
X217656054Y-129501100D01*
X217718838Y-129266789D01*
X217750500Y-129026288D01*
X217750500Y-128783712D01*
X217718838Y-128543211D01*
X217656054Y-128308900D01*
X217563224Y-128084788D01*
X217441936Y-127874711D01*
X217294265Y-127682262D01*
X217294260Y-127682256D01*
X217122743Y-127510739D01*
X217122736Y-127510733D01*
X216930293Y-127363067D01*
X216930292Y-127363066D01*
X216930289Y-127363064D01*
X216720212Y-127241776D01*
X216720205Y-127241773D01*
X216496104Y-127148947D01*
X216261785Y-127086161D01*
X216021289Y-127054500D01*
X216021288Y-127054500D01*
X215778712Y-127054500D01*
X215778711Y-127054500D01*
X215538214Y-127086161D01*
X215303895Y-127148947D01*
X215079794Y-127241773D01*
X215079785Y-127241777D01*
X214869706Y-127363067D01*
X214677263Y-127510733D01*
X214677256Y-127510739D01*
X214505739Y-127682256D01*
X214505733Y-127682263D01*
X214358067Y-127874706D01*
X214236777Y-128084785D01*
X214236773Y-128084794D01*
X214143947Y-128308895D01*
X214081161Y-128543214D01*
X214049500Y-128783711D01*
X168855500Y-128783711D01*
X168823838Y-128543211D01*
X168761054Y-128308900D01*
X168668224Y-128084788D01*
X168546936Y-127874711D01*
X168399265Y-127682262D01*
X168399260Y-127682256D01*
X168227743Y-127510739D01*
X168227736Y-127510733D01*
X168035293Y-127363067D01*
X168035292Y-127363066D01*
X168035289Y-127363064D01*
X167825212Y-127241776D01*
X167825205Y-127241773D01*
X167601104Y-127148947D01*
X167366785Y-127086161D01*
X167126289Y-127054500D01*
X167126288Y-127054500D01*
X166883712Y-127054500D01*
X166883711Y-127054500D01*
X166643214Y-127086161D01*
X166408895Y-127148947D01*
X166184794Y-127241773D01*
X166184785Y-127241777D01*
X165974706Y-127363067D01*
X165782263Y-127510733D01*
X165782256Y-127510739D01*
X165610739Y-127682256D01*
X165610733Y-127682263D01*
X165463067Y-127874706D01*
X165341777Y-128084785D01*
X165341773Y-128084794D01*
X165248947Y-128308895D01*
X165186161Y-128543214D01*
X165154500Y-128783711D01*
X161050500Y-128783711D01*
X161050500Y-124341902D01*
X192047500Y-124341902D01*
X192047500Y-124578097D01*
X192084446Y-124811368D01*
X192157433Y-125035996D01*
X192264657Y-125246433D01*
X192403483Y-125437510D01*
X192570490Y-125604517D01*
X192761567Y-125743343D01*
X192860991Y-125794002D01*
X192972003Y-125850566D01*
X192972005Y-125850566D01*
X192972008Y-125850568D01*
X193092412Y-125889689D01*
X193196631Y-125923553D01*
X193429903Y-125960500D01*
X193429908Y-125960500D01*
X193666097Y-125960500D01*
X193899368Y-125923553D01*
X194123992Y-125850568D01*
X194334433Y-125743343D01*
X194525510Y-125604517D01*
X194692517Y-125437510D01*
X194831343Y-125246433D01*
X194938568Y-125035992D01*
X195011553Y-124811368D01*
X195048500Y-124578097D01*
X195048500Y-124341902D01*
X195011553Y-124108631D01*
X194947068Y-123910168D01*
X194938568Y-123884008D01*
X194938566Y-123884005D01*
X194938566Y-123884003D01*
X194831342Y-123673566D01*
X194692517Y-123482490D01*
X194525510Y-123315483D01*
X194334433Y-123176657D01*
X194123996Y-123069433D01*
X193899368Y-122996446D01*
X193666097Y-122959500D01*
X193666092Y-122959500D01*
X193429908Y-122959500D01*
X193429903Y-122959500D01*
X193196631Y-122996446D01*
X192972003Y-123069433D01*
X192761566Y-123176657D01*
X192652550Y-123255862D01*
X192570490Y-123315483D01*
X192570488Y-123315485D01*
X192570487Y-123315485D01*
X192403485Y-123482487D01*
X192403485Y-123482488D01*
X192403483Y-123482490D01*
X192343862Y-123564550D01*
X192264657Y-123673566D01*
X192157433Y-123884003D01*
X192084446Y-124108631D01*
X192047500Y-124341902D01*
X161050500Y-124341902D01*
X161050500Y-119231902D01*
X166849500Y-119231902D01*
X166849500Y-119468097D01*
X166886446Y-119701368D01*
X166959433Y-119925996D01*
X167066657Y-120136433D01*
X167205483Y-120327510D01*
X167372490Y-120494517D01*
X167563567Y-120633343D01*
X167662991Y-120684002D01*
X167774003Y-120740566D01*
X167774005Y-120740566D01*
X167774008Y-120740568D01*
X167894412Y-120779689D01*
X167998631Y-120813553D01*
X168231903Y-120850500D01*
X168231908Y-120850500D01*
X168468097Y-120850500D01*
X168701368Y-120813553D01*
X168925992Y-120740568D01*
X169136433Y-120633343D01*
X169327510Y-120494517D01*
X169494517Y-120327510D01*
X169633343Y-120136433D01*
X169740568Y-119925992D01*
X169813553Y-119701368D01*
X169828575Y-119606521D01*
X169850500Y-119468097D01*
X169850500Y-119231902D01*
X169825868Y-119076390D01*
X169813553Y-118998632D01*
X169772547Y-118872433D01*
X169770553Y-118802593D01*
X169802796Y-118746437D01*
X171811586Y-116737648D01*
X188691500Y-116737648D01*
X188691500Y-116942351D01*
X188723522Y-117144534D01*
X188786781Y-117339223D01*
X188847001Y-117457409D01*
X188868237Y-117499088D01*
X188879715Y-117521613D01*
X189000028Y-117687213D01*
X189144786Y-117831971D01*
X189280657Y-117930685D01*
X189310390Y-117952287D01*
X189391499Y-117993614D01*
X189492776Y-118045218D01*
X189492778Y-118045218D01*
X189492781Y-118045220D01*
X189567818Y-118069601D01*
X189687465Y-118108477D01*
X189788557Y-118124488D01*
X189889648Y-118140500D01*
X189889649Y-118140500D01*
X190094351Y-118140500D01*
X190094352Y-118140500D01*
X190296534Y-118108477D01*
X190491219Y-118045220D01*
X190673610Y-117952287D01*
X190766590Y-117884732D01*
X190839213Y-117831971D01*
X190839215Y-117831968D01*
X190839219Y-117831966D01*
X190983966Y-117687219D01*
X190983968Y-117687215D01*
X190983971Y-117687213D01*
X191075232Y-117561601D01*
X191104287Y-117521610D01*
X191197220Y-117339219D01*
X191260477Y-117144534D01*
X191292500Y-116942352D01*
X191292500Y-116737648D01*
X191286650Y-116700713D01*
X191260477Y-116535465D01*
X191197218Y-116340776D01*
X191163503Y-116274607D01*
X191104287Y-116158390D01*
X191087219Y-116134898D01*
X190983971Y-115992786D01*
X190839213Y-115848028D01*
X190673613Y-115727715D01*
X190673612Y-115727714D01*
X190673610Y-115727713D01*
X190616653Y-115698691D01*
X190491223Y-115634781D01*
X190296534Y-115571522D01*
X190121995Y-115543878D01*
X190094352Y-115539500D01*
X189889648Y-115539500D01*
X189865329Y-115543351D01*
X189687465Y-115571522D01*
X189492776Y-115634781D01*
X189310386Y-115727715D01*
X189144786Y-115848028D01*
X189000028Y-115992786D01*
X188879715Y-116158386D01*
X188786781Y-116340776D01*
X188723522Y-116535465D01*
X188691500Y-116737648D01*
X171811586Y-116737648D01*
X178057417Y-110491819D01*
X178118740Y-110458334D01*
X178145098Y-110455500D01*
X181015398Y-110455500D01*
X181082437Y-110475185D01*
X181125883Y-110523205D01*
X181132715Y-110536614D01*
X181253028Y-110702213D01*
X181397786Y-110846971D01*
X181552749Y-110959556D01*
X181563390Y-110967287D01*
X181679607Y-111026503D01*
X181745776Y-111060218D01*
X181745778Y-111060218D01*
X181745781Y-111060220D01*
X181801703Y-111078390D01*
X181940465Y-111123477D01*
X181993191Y-111131828D01*
X182142648Y-111155500D01*
X182142649Y-111155500D01*
X182347351Y-111155500D01*
X182347352Y-111155500D01*
X182549534Y-111123477D01*
X182744219Y-111060220D01*
X182926610Y-110967287D01*
X183032163Y-110890599D01*
X183092213Y-110846971D01*
X183092215Y-110846968D01*
X183092219Y-110846966D01*
X183236966Y-110702219D01*
X183236968Y-110702215D01*
X183236971Y-110702213D01*
X183306593Y-110606385D01*
X183357287Y-110536610D01*
X183450220Y-110354219D01*
X183513477Y-110159534D01*
X183545500Y-109957352D01*
X183545500Y-109752648D01*
X183513477Y-109550466D01*
X183450220Y-109355781D01*
X183450218Y-109355778D01*
X183450218Y-109355776D01*
X183416503Y-109289607D01*
X183357287Y-109173390D01*
X183349556Y-109162749D01*
X183236971Y-109007786D01*
X183092213Y-108863028D01*
X182926613Y-108742715D01*
X182926612Y-108742714D01*
X182926610Y-108742713D01*
X182869653Y-108713691D01*
X182744223Y-108649781D01*
X182549534Y-108586522D01*
X182374995Y-108558878D01*
X182347352Y-108554500D01*
X182142648Y-108554500D01*
X182118329Y-108558351D01*
X181940465Y-108586522D01*
X181745776Y-108649781D01*
X181563386Y-108742715D01*
X181397786Y-108863028D01*
X181253028Y-109007786D01*
X181132715Y-109173385D01*
X181125883Y-109186795D01*
X181077909Y-109237591D01*
X181015398Y-109254500D01*
X177931670Y-109254500D01*
X177931654Y-109254499D01*
X177924058Y-109254499D01*
X177765943Y-109254499D01*
X177689579Y-109274961D01*
X177613214Y-109295423D01*
X177613209Y-109295426D01*
X177476290Y-109374475D01*
X177476282Y-109374481D01*
X168953563Y-117897200D01*
X168892240Y-117930685D01*
X168827564Y-117927450D01*
X168701370Y-117886447D01*
X168468097Y-117849500D01*
X168468092Y-117849500D01*
X168231908Y-117849500D01*
X168231903Y-117849500D01*
X167998631Y-117886446D01*
X167774003Y-117959433D01*
X167563566Y-118066657D01*
X167461931Y-118140500D01*
X167372490Y-118205483D01*
X167372488Y-118205485D01*
X167372487Y-118205485D01*
X167205485Y-118372487D01*
X167205485Y-118372488D01*
X167205483Y-118372490D01*
X167145862Y-118454550D01*
X167066657Y-118563566D01*
X166959433Y-118774003D01*
X166886446Y-118998631D01*
X166849500Y-119231902D01*
X161050500Y-119231902D01*
X161050500Y-114151902D01*
X166849500Y-114151902D01*
X166849500Y-114388097D01*
X166886446Y-114621368D01*
X166959433Y-114845996D01*
X166998525Y-114922717D01*
X167066657Y-115056433D01*
X167205483Y-115247510D01*
X167372490Y-115414517D01*
X167563567Y-115553343D01*
X167662991Y-115604002D01*
X167774003Y-115660566D01*
X167774005Y-115660566D01*
X167774008Y-115660568D01*
X167880536Y-115695181D01*
X167998631Y-115733553D01*
X168231903Y-115770500D01*
X168231908Y-115770500D01*
X168468097Y-115770500D01*
X168701368Y-115733553D01*
X168707686Y-115731500D01*
X168925992Y-115660568D01*
X169136433Y-115553343D01*
X169327510Y-115414517D01*
X169494517Y-115247510D01*
X169633343Y-115056433D01*
X169740568Y-114845992D01*
X169813553Y-114621368D01*
X169850500Y-114388097D01*
X169850500Y-114151902D01*
X169813553Y-113918631D01*
X169740566Y-113694003D01*
X169672396Y-113560213D01*
X169633343Y-113483567D01*
X169494517Y-113292490D01*
X169327510Y-113125483D01*
X169136433Y-112986657D01*
X169094357Y-112965218D01*
X168925996Y-112879433D01*
X168701368Y-112806446D01*
X168468097Y-112769500D01*
X168468092Y-112769500D01*
X168231908Y-112769500D01*
X168231903Y-112769500D01*
X167998631Y-112806446D01*
X167774003Y-112879433D01*
X167563566Y-112986657D01*
X167461931Y-113060500D01*
X167372490Y-113125483D01*
X167372488Y-113125485D01*
X167372487Y-113125485D01*
X167205485Y-113292487D01*
X167205485Y-113292488D01*
X167205483Y-113292490D01*
X167191686Y-113311480D01*
X167066657Y-113483566D01*
X166959433Y-113694003D01*
X166886446Y-113918631D01*
X166849500Y-114151902D01*
X161050500Y-114151902D01*
X161050500Y-105926947D01*
X166775000Y-105926947D01*
X166775000Y-106163052D01*
X166811934Y-106396247D01*
X166884897Y-106620802D01*
X166992087Y-106831174D01*
X167052338Y-106914104D01*
X167052340Y-106914105D01*
X167792037Y-106174408D01*
X167809075Y-106237993D01*
X167874901Y-106352007D01*
X167967993Y-106445099D01*
X168082007Y-106510925D01*
X168145590Y-106527962D01*
X167405893Y-107267658D01*
X167488828Y-107327914D01*
X167699197Y-107435102D01*
X167923752Y-107508065D01*
X167923751Y-107508065D01*
X168156948Y-107545000D01*
X168393052Y-107545000D01*
X168626247Y-107508065D01*
X168850802Y-107435102D01*
X169061163Y-107327918D01*
X169061169Y-107327914D01*
X169144104Y-107267658D01*
X169144105Y-107267658D01*
X168404408Y-106527962D01*
X168467993Y-106510925D01*
X168582007Y-106445099D01*
X168675099Y-106352007D01*
X168740925Y-106237993D01*
X168757962Y-106174408D01*
X169497658Y-106914105D01*
X169497658Y-106914104D01*
X169557914Y-106831169D01*
X169557918Y-106831163D01*
X169665102Y-106620802D01*
X169738065Y-106396247D01*
X169775000Y-106163052D01*
X169775000Y-105926947D01*
X169738065Y-105693752D01*
X169665102Y-105469197D01*
X169557914Y-105258828D01*
X169497658Y-105175894D01*
X169497658Y-105175893D01*
X168757962Y-105915590D01*
X168740925Y-105852007D01*
X168675099Y-105737993D01*
X168582007Y-105644901D01*
X168467993Y-105579075D01*
X168404409Y-105562037D01*
X169144105Y-104822340D01*
X169144104Y-104822338D01*
X169061174Y-104762087D01*
X168850802Y-104654897D01*
X168626247Y-104581934D01*
X168626248Y-104581934D01*
X168393052Y-104545000D01*
X168156948Y-104545000D01*
X167923752Y-104581934D01*
X167699197Y-104654897D01*
X167488830Y-104762084D01*
X167405894Y-104822340D01*
X168145591Y-105562037D01*
X168082007Y-105579075D01*
X167967993Y-105644901D01*
X167874901Y-105737993D01*
X167809075Y-105852007D01*
X167792037Y-105915591D01*
X167052340Y-105175894D01*
X166992084Y-105258830D01*
X166884897Y-105469197D01*
X166811934Y-105693752D01*
X166775000Y-105926947D01*
X161050500Y-105926947D01*
X161050500Y-100846902D01*
X166774500Y-100846902D01*
X166774500Y-101083097D01*
X166811446Y-101316368D01*
X166884433Y-101540996D01*
X166983777Y-101735968D01*
X166991657Y-101751433D01*
X167130483Y-101942510D01*
X167297490Y-102109517D01*
X167488567Y-102248343D01*
X167565733Y-102287661D01*
X167699003Y-102355566D01*
X167699005Y-102355566D01*
X167699008Y-102355568D01*
X167819412Y-102394689D01*
X167923631Y-102428553D01*
X168156903Y-102465500D01*
X168156908Y-102465500D01*
X168393097Y-102465500D01*
X168626368Y-102428553D01*
X168850992Y-102355568D01*
X169061433Y-102248343D01*
X169220626Y-102132682D01*
X180945000Y-102132682D01*
X180945000Y-102337317D01*
X180977009Y-102539417D01*
X181040244Y-102734031D01*
X181133141Y-102916350D01*
X181133147Y-102916359D01*
X181165523Y-102960921D01*
X181165524Y-102960922D01*
X181845000Y-102281446D01*
X181845000Y-102287661D01*
X181872259Y-102389394D01*
X181924920Y-102480606D01*
X181999394Y-102555080D01*
X182090606Y-102607741D01*
X182192339Y-102635000D01*
X182198553Y-102635000D01*
X181519076Y-103314474D01*
X181563650Y-103346859D01*
X181745968Y-103439755D01*
X181940582Y-103502990D01*
X182142683Y-103535000D01*
X182347317Y-103535000D01*
X182549417Y-103502990D01*
X182744031Y-103439755D01*
X182926349Y-103346859D01*
X182970921Y-103314474D01*
X182291447Y-102635000D01*
X182297661Y-102635000D01*
X182399394Y-102607741D01*
X182490606Y-102555080D01*
X182565080Y-102480606D01*
X182617741Y-102389394D01*
X182645000Y-102287661D01*
X182645000Y-102281448D01*
X183324474Y-102960922D01*
X183324474Y-102960921D01*
X183356859Y-102916349D01*
X183449755Y-102734031D01*
X183512990Y-102539417D01*
X183545000Y-102337317D01*
X183545000Y-102132682D01*
X183512990Y-101930582D01*
X183449755Y-101735968D01*
X183356859Y-101553650D01*
X183324474Y-101509077D01*
X183324474Y-101509076D01*
X182645000Y-102188551D01*
X182645000Y-102182339D01*
X182617741Y-102080606D01*
X182565080Y-101989394D01*
X182490606Y-101914920D01*
X182399394Y-101862259D01*
X182297661Y-101835000D01*
X182291446Y-101835000D01*
X182970922Y-101155524D01*
X182970921Y-101155523D01*
X182926359Y-101123147D01*
X182926350Y-101123141D01*
X182744031Y-101030244D01*
X182549417Y-100967009D01*
X182347317Y-100935000D01*
X182142683Y-100935000D01*
X181940582Y-100967009D01*
X181745968Y-101030244D01*
X181563644Y-101123143D01*
X181519077Y-101155523D01*
X181519077Y-101155524D01*
X182198554Y-101835000D01*
X182192339Y-101835000D01*
X182090606Y-101862259D01*
X181999394Y-101914920D01*
X181924920Y-101989394D01*
X181872259Y-102080606D01*
X181845000Y-102182339D01*
X181845000Y-102188553D01*
X181165524Y-101509077D01*
X181165523Y-101509077D01*
X181133143Y-101553644D01*
X181040244Y-101735968D01*
X180977009Y-101930582D01*
X180945000Y-102132682D01*
X169220626Y-102132682D01*
X169252510Y-102109517D01*
X169419517Y-101942510D01*
X169558343Y-101751433D01*
X169665568Y-101540992D01*
X169738553Y-101316368D01*
X169759616Y-101183385D01*
X169775500Y-101083097D01*
X169775500Y-100846902D01*
X169738553Y-100613631D01*
X169665566Y-100389003D01*
X169558342Y-100178566D01*
X169419517Y-99987490D01*
X169252510Y-99820483D01*
X169061433Y-99681657D01*
X168850996Y-99574433D01*
X168626368Y-99501446D01*
X168393097Y-99464500D01*
X168393092Y-99464500D01*
X168156908Y-99464500D01*
X168156903Y-99464500D01*
X167923631Y-99501446D01*
X167699003Y-99574433D01*
X167488566Y-99681657D01*
X167379550Y-99760862D01*
X167297490Y-99820483D01*
X167297488Y-99820485D01*
X167297487Y-99820485D01*
X167130485Y-99987487D01*
X167130485Y-99987488D01*
X167130483Y-99987490D01*
X167070862Y-100069550D01*
X166991657Y-100178566D01*
X166884433Y-100389003D01*
X166811446Y-100613631D01*
X166774500Y-100846902D01*
X161050500Y-100846902D01*
X161050500Y-93877648D01*
X177809500Y-93877648D01*
X177809500Y-94082351D01*
X177841522Y-94284534D01*
X177904781Y-94479223D01*
X177997715Y-94661613D01*
X178118028Y-94827213D01*
X178262786Y-94971971D01*
X178417749Y-95084556D01*
X178428390Y-95092287D01*
X178544607Y-95151503D01*
X178610776Y-95185218D01*
X178610778Y-95185218D01*
X178610781Y-95185220D01*
X178700459Y-95214358D01*
X178805465Y-95248477D01*
X178906557Y-95264488D01*
X179007648Y-95280500D01*
X179007649Y-95280500D01*
X179212351Y-95280500D01*
X179212352Y-95280500D01*
X179414534Y-95248477D01*
X179609219Y-95185220D01*
X179791610Y-95092287D01*
X179884590Y-95024732D01*
X179957213Y-94971971D01*
X179957215Y-94971968D01*
X179957219Y-94971966D01*
X180101966Y-94827219D01*
X180142911Y-94770861D01*
X180198240Y-94728196D01*
X180267853Y-94722215D01*
X180329649Y-94754820D01*
X180360936Y-94804741D01*
X180375642Y-94849121D01*
X180375643Y-94849124D01*
X180467684Y-94998345D01*
X180591654Y-95122315D01*
X180740875Y-95214356D01*
X180740880Y-95214358D01*
X180907302Y-95269505D01*
X180907309Y-95269506D01*
X181010019Y-95279999D01*
X181359999Y-95279999D01*
X181360000Y-95279998D01*
X181360000Y-94295686D01*
X181364394Y-94300080D01*
X181455606Y-94352741D01*
X181557339Y-94380000D01*
X181662661Y-94380000D01*
X181764394Y-94352741D01*
X181855606Y-94300080D01*
X181860000Y-94295686D01*
X181860000Y-95279999D01*
X182209972Y-95279999D01*
X182209986Y-95279998D01*
X182312697Y-95269505D01*
X182479119Y-95214358D01*
X182479124Y-95214356D01*
X182628345Y-95122315D01*
X182752315Y-94998345D01*
X182844356Y-94849124D01*
X182844358Y-94849119D01*
X182899505Y-94682697D01*
X182899506Y-94682690D01*
X182909999Y-94579986D01*
X182910000Y-94579973D01*
X182910000Y-94230000D01*
X181925686Y-94230000D01*
X181930080Y-94225606D01*
X181982741Y-94134394D01*
X182010000Y-94032661D01*
X182010000Y-93927339D01*
X181982741Y-93825606D01*
X181930080Y-93734394D01*
X181925686Y-93730000D01*
X182909999Y-93730000D01*
X182909999Y-93380028D01*
X182909998Y-93380013D01*
X182899505Y-93277302D01*
X182844358Y-93110880D01*
X182844356Y-93110875D01*
X182752315Y-92961654D01*
X182628345Y-92837684D01*
X182479124Y-92745643D01*
X182479119Y-92745641D01*
X182312697Y-92690494D01*
X182312690Y-92690493D01*
X182209986Y-92680000D01*
X181860000Y-92680000D01*
X181860000Y-93664314D01*
X181855606Y-93659920D01*
X181764394Y-93607259D01*
X181662661Y-93580000D01*
X181557339Y-93580000D01*
X181455606Y-93607259D01*
X181364394Y-93659920D01*
X181360000Y-93664314D01*
X181360000Y-92680000D01*
X181010028Y-92680000D01*
X181010012Y-92680001D01*
X180907302Y-92690494D01*
X180740880Y-92745641D01*
X180740875Y-92745643D01*
X180591654Y-92837684D01*
X180467684Y-92961654D01*
X180375643Y-93110875D01*
X180375638Y-93110886D01*
X180360935Y-93155258D01*
X180321162Y-93212703D01*
X180256646Y-93239525D01*
X180187870Y-93227209D01*
X180142911Y-93189138D01*
X180138077Y-93182485D01*
X180101966Y-93132781D01*
X179957219Y-92988034D01*
X179957213Y-92988028D01*
X179791613Y-92867715D01*
X179791612Y-92867714D01*
X179791610Y-92867713D01*
X179732675Y-92837684D01*
X179609223Y-92774781D01*
X179414534Y-92711522D01*
X179239995Y-92683878D01*
X179212352Y-92679500D01*
X179007648Y-92679500D01*
X178983329Y-92683351D01*
X178805465Y-92711522D01*
X178610776Y-92774781D01*
X178428386Y-92867715D01*
X178262786Y-92988028D01*
X178118028Y-93132786D01*
X177997715Y-93298386D01*
X177904781Y-93480776D01*
X177841522Y-93675465D01*
X177809500Y-93877648D01*
X161050500Y-93877648D01*
X161050500Y-91321947D01*
X166775000Y-91321947D01*
X166775000Y-91558052D01*
X166811934Y-91791247D01*
X166884897Y-92015802D01*
X166992087Y-92226174D01*
X167052338Y-92309104D01*
X167052340Y-92309105D01*
X167792037Y-91569408D01*
X167809075Y-91632993D01*
X167874901Y-91747007D01*
X167967993Y-91840099D01*
X168082007Y-91905925D01*
X168145590Y-91922962D01*
X167405893Y-92662658D01*
X167488828Y-92722914D01*
X167699197Y-92830102D01*
X167923752Y-92903065D01*
X167923751Y-92903065D01*
X168156948Y-92940000D01*
X168393052Y-92940000D01*
X168626247Y-92903065D01*
X168850802Y-92830102D01*
X169061163Y-92722918D01*
X169061169Y-92722914D01*
X169144104Y-92662658D01*
X169144105Y-92662658D01*
X168404408Y-91922962D01*
X168467993Y-91905925D01*
X168582007Y-91840099D01*
X168675099Y-91747007D01*
X168740925Y-91632993D01*
X168757962Y-91569408D01*
X169497658Y-92309105D01*
X169497658Y-92309104D01*
X169557914Y-92226169D01*
X169557918Y-92226163D01*
X169665102Y-92015802D01*
X169738065Y-91791247D01*
X169775000Y-91558052D01*
X169775000Y-91321947D01*
X169738065Y-91088752D01*
X169665102Y-90864197D01*
X169557914Y-90653828D01*
X169497658Y-90570894D01*
X169497658Y-90570893D01*
X168757962Y-91310590D01*
X168740925Y-91247007D01*
X168675099Y-91132993D01*
X168582007Y-91039901D01*
X168467993Y-90974075D01*
X168404409Y-90957037D01*
X169144105Y-90217340D01*
X169144104Y-90217338D01*
X169061174Y-90157087D01*
X168850802Y-90049897D01*
X168626247Y-89976934D01*
X168626248Y-89976934D01*
X168393052Y-89940000D01*
X168156948Y-89940000D01*
X167923752Y-89976934D01*
X167699197Y-90049897D01*
X167488830Y-90157084D01*
X167405894Y-90217340D01*
X168145591Y-90957037D01*
X168082007Y-90974075D01*
X167967993Y-91039901D01*
X167874901Y-91132993D01*
X167809075Y-91247007D01*
X167792037Y-91310591D01*
X167052340Y-90570894D01*
X166992084Y-90653830D01*
X166884897Y-90864197D01*
X166811934Y-91088752D01*
X166775000Y-91321947D01*
X161050500Y-91321947D01*
X161050500Y-81161902D01*
X166774500Y-81161902D01*
X166774500Y-81398097D01*
X166811446Y-81631368D01*
X166884433Y-81855996D01*
X166964952Y-82014022D01*
X166991657Y-82066433D01*
X167130483Y-82257510D01*
X167297490Y-82424517D01*
X167488567Y-82563343D01*
X167550676Y-82594989D01*
X167699003Y-82670566D01*
X167699005Y-82670566D01*
X167699008Y-82670568D01*
X167819412Y-82709689D01*
X167923631Y-82743553D01*
X168156903Y-82780500D01*
X168156908Y-82780500D01*
X168393097Y-82780500D01*
X168626368Y-82743553D01*
X168850992Y-82670568D01*
X169061433Y-82563343D01*
X169252510Y-82424517D01*
X169419517Y-82257510D01*
X169558343Y-82066433D01*
X169665568Y-81855992D01*
X169738553Y-81631368D01*
X169742262Y-81607951D01*
X169775500Y-81398097D01*
X169775500Y-81161902D01*
X169738553Y-80928631D01*
X169665566Y-80704003D01*
X169586078Y-80548000D01*
X169558343Y-80493567D01*
X169419517Y-80302490D01*
X169252510Y-80135483D01*
X169061433Y-79996657D01*
X169016813Y-79973922D01*
X168850996Y-79889433D01*
X168626368Y-79816446D01*
X168393097Y-79779500D01*
X168393092Y-79779500D01*
X168156908Y-79779500D01*
X168156903Y-79779500D01*
X167923631Y-79816446D01*
X167699003Y-79889433D01*
X167488566Y-79996657D01*
X167408280Y-80054989D01*
X167297490Y-80135483D01*
X167297488Y-80135485D01*
X167297487Y-80135485D01*
X167130485Y-80302487D01*
X167130485Y-80302488D01*
X167130483Y-80302490D01*
X167112331Y-80327474D01*
X166991657Y-80493566D01*
X166884433Y-80704003D01*
X166811446Y-80928631D01*
X166774500Y-81161902D01*
X161050500Y-81161902D01*
X161050500Y-79145682D01*
X179040000Y-79145682D01*
X179040000Y-79350317D01*
X179072009Y-79552417D01*
X179135244Y-79747031D01*
X179228141Y-79929350D01*
X179228147Y-79929359D01*
X179260523Y-79973921D01*
X179260524Y-79973922D01*
X179940000Y-79294446D01*
X179940000Y-79300661D01*
X179967259Y-79402394D01*
X180019920Y-79493606D01*
X180094394Y-79568080D01*
X180185606Y-79620741D01*
X180287339Y-79648000D01*
X180293553Y-79648000D01*
X179614076Y-80327474D01*
X179658650Y-80359859D01*
X179840968Y-80452755D01*
X180035582Y-80515990D01*
X180237683Y-80548000D01*
X180442317Y-80548000D01*
X180644417Y-80515990D01*
X180839031Y-80452755D01*
X181021349Y-80359859D01*
X181065921Y-80327474D01*
X180386447Y-79648000D01*
X180392661Y-79648000D01*
X180494394Y-79620741D01*
X180585606Y-79568080D01*
X180660080Y-79493606D01*
X180712741Y-79402394D01*
X180740000Y-79300661D01*
X180740000Y-79294447D01*
X181419474Y-79973921D01*
X181451859Y-79929349D01*
X181544755Y-79747031D01*
X181607990Y-79552417D01*
X181640000Y-79350317D01*
X181640000Y-79145682D01*
X181607990Y-78943582D01*
X181544755Y-78748968D01*
X181451859Y-78566650D01*
X181419474Y-78522077D01*
X181419474Y-78522076D01*
X180740000Y-79201551D01*
X180740000Y-79195339D01*
X180712741Y-79093606D01*
X180660080Y-79002394D01*
X180585606Y-78927920D01*
X180494394Y-78875259D01*
X180392661Y-78848000D01*
X180386446Y-78848000D01*
X181065922Y-78168524D01*
X181065921Y-78168523D01*
X181021359Y-78136147D01*
X181021350Y-78136141D01*
X180839031Y-78043244D01*
X180644417Y-77980009D01*
X180442317Y-77948000D01*
X180237683Y-77948000D01*
X180035582Y-77980009D01*
X179840968Y-78043244D01*
X179658644Y-78136143D01*
X179614077Y-78168523D01*
X179614077Y-78168524D01*
X180293554Y-78848000D01*
X180287339Y-78848000D01*
X180185606Y-78875259D01*
X180094394Y-78927920D01*
X180019920Y-79002394D01*
X179967259Y-79093606D01*
X179940000Y-79195339D01*
X179940000Y-79201553D01*
X179260524Y-78522077D01*
X179260523Y-78522077D01*
X179228143Y-78566644D01*
X179135244Y-78748968D01*
X179072009Y-78943582D01*
X179040000Y-79145682D01*
X161050500Y-79145682D01*
X161050500Y-73541902D01*
X166774500Y-73541902D01*
X166774500Y-73778097D01*
X166811446Y-74011368D01*
X166884433Y-74235996D01*
X166946397Y-74357606D01*
X166991657Y-74446433D01*
X167130483Y-74637510D01*
X167297490Y-74804517D01*
X167488567Y-74943343D01*
X167587991Y-74994002D01*
X167699003Y-75050566D01*
X167699005Y-75050566D01*
X167699008Y-75050568D01*
X167819412Y-75089689D01*
X167923631Y-75123553D01*
X168156903Y-75160500D01*
X168156908Y-75160500D01*
X168393097Y-75160500D01*
X168626368Y-75123553D01*
X168709871Y-75096421D01*
X168850992Y-75050568D01*
X169061433Y-74943343D01*
X169252510Y-74804517D01*
X169419517Y-74637510D01*
X169558343Y-74446433D01*
X169618583Y-74328204D01*
X169666558Y-74277409D01*
X169729068Y-74260500D01*
X185119903Y-74260500D01*
X185186942Y-74280185D01*
X185207584Y-74296819D01*
X189126561Y-78215796D01*
X189160046Y-78277119D01*
X189156811Y-78341794D01*
X189133985Y-78412045D01*
X189101351Y-78618092D01*
X189099500Y-78629778D01*
X189099500Y-78850222D01*
X189111806Y-78927920D01*
X189133985Y-79067952D01*
X189202103Y-79277603D01*
X189202104Y-79277606D01*
X189302187Y-79474025D01*
X189431752Y-79652358D01*
X189431756Y-79652363D01*
X189587636Y-79808243D01*
X189587641Y-79808247D01*
X189727254Y-79909682D01*
X189769920Y-79965012D01*
X189775899Y-80034625D01*
X189743293Y-80096420D01*
X189727254Y-80110318D01*
X189587641Y-80211752D01*
X189587636Y-80211756D01*
X189431756Y-80367636D01*
X189431752Y-80367641D01*
X189302187Y-80545974D01*
X189202104Y-80742393D01*
X189202103Y-80742396D01*
X189133985Y-80952047D01*
X189133985Y-80952049D01*
X189099500Y-81169778D01*
X189099500Y-81390222D01*
X189100747Y-81398097D01*
X189133985Y-81607952D01*
X189156811Y-81678203D01*
X189158806Y-81748044D01*
X189126561Y-81804202D01*
X184699584Y-86231181D01*
X184638261Y-86264666D01*
X184611903Y-86267500D01*
X181569602Y-86267500D01*
X181502563Y-86247815D01*
X181459117Y-86199795D01*
X181452284Y-86186385D01*
X181331971Y-86020786D01*
X181187213Y-85876028D01*
X181021613Y-85755715D01*
X181021612Y-85755714D01*
X181021610Y-85755713D01*
X180964653Y-85726691D01*
X180839223Y-85662781D01*
X180644534Y-85599522D01*
X180469995Y-85571878D01*
X180442352Y-85567500D01*
X180237648Y-85567500D01*
X180213329Y-85571351D01*
X180035465Y-85599522D01*
X179840776Y-85662781D01*
X179658386Y-85755715D01*
X179492786Y-85876028D01*
X179348028Y-86020786D01*
X179227715Y-86186385D01*
X179220883Y-86199795D01*
X179172909Y-86250591D01*
X179110398Y-86267500D01*
X170988097Y-86267500D01*
X170921058Y-86247815D01*
X170900416Y-86231181D01*
X170667590Y-85998355D01*
X170667588Y-85998352D01*
X170548717Y-85879481D01*
X170548716Y-85879480D01*
X170449839Y-85822394D01*
X170449838Y-85822393D01*
X170411783Y-85800422D01*
X170350506Y-85784003D01*
X170259057Y-85759499D01*
X170100943Y-85759499D01*
X170093347Y-85759499D01*
X170093331Y-85759500D01*
X169729068Y-85759500D01*
X169662029Y-85739815D01*
X169618583Y-85691795D01*
X169603799Y-85662780D01*
X169558343Y-85573567D01*
X169419517Y-85382490D01*
X169252510Y-85215483D01*
X169061433Y-85076657D01*
X169039291Y-85065375D01*
X168850996Y-84969433D01*
X168626368Y-84896446D01*
X168393097Y-84859500D01*
X168393092Y-84859500D01*
X168156908Y-84859500D01*
X168156903Y-84859500D01*
X167923631Y-84896446D01*
X167699003Y-84969433D01*
X167488566Y-85076657D01*
X167408280Y-85134989D01*
X167297490Y-85215483D01*
X167297488Y-85215485D01*
X167297487Y-85215485D01*
X167130485Y-85382487D01*
X167130485Y-85382488D01*
X167130483Y-85382490D01*
X167083152Y-85447635D01*
X166991657Y-85573566D01*
X166884433Y-85784003D01*
X166811446Y-86008631D01*
X166774500Y-86241902D01*
X166774500Y-86478097D01*
X166811446Y-86711368D01*
X166884433Y-86935996D01*
X166964952Y-87094022D01*
X166991657Y-87146433D01*
X167130483Y-87337510D01*
X167297490Y-87504517D01*
X167488567Y-87643343D01*
X167550676Y-87674989D01*
X167699003Y-87750566D01*
X167699005Y-87750566D01*
X167699008Y-87750568D01*
X167819412Y-87789689D01*
X167923631Y-87823553D01*
X168156903Y-87860500D01*
X168156908Y-87860500D01*
X168393097Y-87860500D01*
X168626368Y-87823553D01*
X168850992Y-87750568D01*
X169061433Y-87643343D01*
X169252510Y-87504517D01*
X169419517Y-87337510D01*
X169558343Y-87146433D01*
X169618583Y-87028204D01*
X169629032Y-87017140D01*
X169635355Y-87003297D01*
X169652535Y-86992255D01*
X169666558Y-86977409D01*
X169682237Y-86973167D01*
X169694133Y-86965523D01*
X169729068Y-86960500D01*
X169879903Y-86960500D01*
X169946942Y-86980185D01*
X169967584Y-86996819D01*
X170203139Y-87232374D01*
X170203149Y-87232385D01*
X170207479Y-87236715D01*
X170207480Y-87236716D01*
X170319284Y-87348520D01*
X170319286Y-87348521D01*
X170319290Y-87348524D01*
X170456209Y-87427573D01*
X170456216Y-87427577D01*
X170568019Y-87457534D01*
X170608942Y-87468500D01*
X170608943Y-87468500D01*
X179110398Y-87468500D01*
X179177437Y-87488185D01*
X179220883Y-87536205D01*
X179227715Y-87549614D01*
X179348028Y-87715213D01*
X179492786Y-87859971D01*
X179647749Y-87972556D01*
X179658390Y-87980287D01*
X179774607Y-88039503D01*
X179840776Y-88073218D01*
X179840778Y-88073218D01*
X179840781Y-88073220D01*
X179945137Y-88107127D01*
X180035465Y-88136477D01*
X180136557Y-88152488D01*
X180237648Y-88168500D01*
X180237649Y-88168500D01*
X180442351Y-88168500D01*
X180442352Y-88168500D01*
X180644534Y-88136477D01*
X180839219Y-88073220D01*
X181021610Y-87980287D01*
X181114590Y-87912732D01*
X181187213Y-87859971D01*
X181187215Y-87859968D01*
X181187219Y-87859966D01*
X181331966Y-87715219D01*
X181331968Y-87715215D01*
X181331971Y-87715213D01*
X181452284Y-87549614D01*
X181452283Y-87549614D01*
X181452287Y-87549610D01*
X181459117Y-87536204D01*
X181507091Y-87485409D01*
X181569602Y-87468500D01*
X184825331Y-87468500D01*
X184825347Y-87468501D01*
X184832943Y-87468501D01*
X184991054Y-87468501D01*
X184991057Y-87468501D01*
X185143785Y-87427577D01*
X185193904Y-87398639D01*
X185280716Y-87348520D01*
X185392520Y-87236716D01*
X185392520Y-87236714D01*
X185402728Y-87226507D01*
X185402730Y-87226504D01*
X188887819Y-83741415D01*
X188949142Y-83707930D01*
X189018834Y-83712914D01*
X189074767Y-83754786D01*
X189099184Y-83820250D01*
X189099500Y-83829096D01*
X189099500Y-83930221D01*
X189133985Y-84147952D01*
X189202103Y-84357603D01*
X189202104Y-84357606D01*
X189302187Y-84554025D01*
X189431752Y-84732358D01*
X189431756Y-84732363D01*
X189587636Y-84888243D01*
X189587641Y-84888247D01*
X189727254Y-84989682D01*
X189769920Y-85045012D01*
X189775899Y-85114625D01*
X189743293Y-85176420D01*
X189727254Y-85190318D01*
X189587641Y-85291752D01*
X189587636Y-85291756D01*
X189431756Y-85447636D01*
X189431752Y-85447641D01*
X189302187Y-85625974D01*
X189202104Y-85822393D01*
X189202104Y-85822395D01*
X189133985Y-86032047D01*
X189102445Y-86231181D01*
X189099500Y-86249778D01*
X189099500Y-86470222D01*
X189100747Y-86478097D01*
X189133985Y-86687952D01*
X189202103Y-86897603D01*
X189202104Y-86897606D01*
X189302187Y-87094025D01*
X189431752Y-87272358D01*
X189431756Y-87272363D01*
X189587636Y-87428243D01*
X189587641Y-87428247D01*
X189727254Y-87529682D01*
X189769920Y-87585012D01*
X189775899Y-87654625D01*
X189743293Y-87716420D01*
X189727254Y-87730318D01*
X189587641Y-87831752D01*
X189587636Y-87831756D01*
X189431756Y-87987636D01*
X189431752Y-87987641D01*
X189302187Y-88165974D01*
X189202104Y-88362393D01*
X189202103Y-88362396D01*
X189133985Y-88572047D01*
X189099500Y-88789778D01*
X189099500Y-89010221D01*
X189133985Y-89227952D01*
X189202103Y-89437603D01*
X189202104Y-89437606D01*
X189302187Y-89634025D01*
X189431752Y-89812358D01*
X189431756Y-89812363D01*
X189587636Y-89968243D01*
X189587641Y-89968247D01*
X189727254Y-90069682D01*
X189769920Y-90125012D01*
X189775899Y-90194625D01*
X189743293Y-90256420D01*
X189727254Y-90270318D01*
X189587641Y-90371752D01*
X189587636Y-90371756D01*
X189431756Y-90527636D01*
X189431752Y-90527641D01*
X189302187Y-90705974D01*
X189202104Y-90902393D01*
X189202103Y-90902396D01*
X189133985Y-91112047D01*
X189099500Y-91329778D01*
X189099500Y-91550221D01*
X189133985Y-91767952D01*
X189202103Y-91977603D01*
X189202104Y-91977606D01*
X189302187Y-92174025D01*
X189431752Y-92352358D01*
X189431756Y-92352363D01*
X189587640Y-92508247D01*
X189727679Y-92609990D01*
X189770345Y-92665319D01*
X189776324Y-92734933D01*
X189743719Y-92796728D01*
X189727679Y-92810626D01*
X189702485Y-92828930D01*
X189702485Y-92828932D01*
X190453553Y-93580000D01*
X190447339Y-93580000D01*
X190345606Y-93607259D01*
X190254394Y-93659920D01*
X190179920Y-93734394D01*
X190127259Y-93825606D01*
X190100000Y-93927339D01*
X190100000Y-93933553D01*
X189348932Y-93182485D01*
X189348931Y-93182485D01*
X189302616Y-93246233D01*
X189202567Y-93442589D01*
X189134473Y-93652164D01*
X189100000Y-93869818D01*
X189100000Y-94090181D01*
X189134473Y-94307835D01*
X189202567Y-94517410D01*
X189302611Y-94713756D01*
X189348932Y-94777513D01*
X190100000Y-94026445D01*
X190100000Y-94032661D01*
X190127259Y-94134394D01*
X190179920Y-94225606D01*
X190254394Y-94300080D01*
X190345606Y-94352741D01*
X190447339Y-94380000D01*
X190453553Y-94380000D01*
X189702485Y-95131065D01*
X189702485Y-95131066D01*
X189766243Y-95177388D01*
X189962589Y-95277432D01*
X190172164Y-95345526D01*
X190389819Y-95380000D01*
X190610181Y-95380000D01*
X190827835Y-95345526D01*
X191037410Y-95277432D01*
X191233760Y-95177386D01*
X191297513Y-95131066D01*
X191297514Y-95131066D01*
X190546447Y-94380000D01*
X190552661Y-94380000D01*
X190654394Y-94352741D01*
X190745606Y-94300080D01*
X190820080Y-94225606D01*
X190872741Y-94134394D01*
X190900000Y-94032661D01*
X190900000Y-94026447D01*
X191651066Y-94777514D01*
X191651066Y-94777513D01*
X191697386Y-94713760D01*
X191797432Y-94517410D01*
X191865526Y-94307835D01*
X191900000Y-94090181D01*
X191900000Y-93869818D01*
X191865526Y-93652164D01*
X191797432Y-93442589D01*
X191697388Y-93246243D01*
X191651066Y-93182485D01*
X191651065Y-93182485D01*
X190900000Y-93933551D01*
X190900000Y-93927339D01*
X190872741Y-93825606D01*
X190820080Y-93734394D01*
X190745606Y-93659920D01*
X190654394Y-93607259D01*
X190552661Y-93580000D01*
X190546445Y-93580000D01*
X191297513Y-92828932D01*
X191272319Y-92810628D01*
X191229653Y-92755298D01*
X191223674Y-92685685D01*
X191256279Y-92623889D01*
X191272313Y-92609994D01*
X191412365Y-92508242D01*
X191568242Y-92352365D01*
X191697815Y-92174022D01*
X191797895Y-91977606D01*
X191866015Y-91767951D01*
X191900500Y-91550222D01*
X191900500Y-91329778D01*
X191866015Y-91112049D01*
X191797895Y-90902394D01*
X191797895Y-90902393D01*
X191763237Y-90834375D01*
X191697815Y-90705978D01*
X191681260Y-90683192D01*
X191568247Y-90527641D01*
X191568243Y-90527636D01*
X191412363Y-90371756D01*
X191412358Y-90371752D01*
X191272745Y-90270318D01*
X191230079Y-90214989D01*
X191224100Y-90145375D01*
X191256705Y-90083580D01*
X191272745Y-90069682D01*
X191412358Y-89968247D01*
X191412356Y-89968247D01*
X191412365Y-89968242D01*
X191568242Y-89812365D01*
X191697815Y-89634022D01*
X191797895Y-89437606D01*
X191866015Y-89227951D01*
X191900500Y-89010222D01*
X191900500Y-88789778D01*
X191866015Y-88572049D01*
X191797895Y-88362394D01*
X191797895Y-88362393D01*
X191763237Y-88294375D01*
X191697815Y-88165978D01*
X191630423Y-88073220D01*
X191568247Y-87987641D01*
X191568243Y-87987636D01*
X191412363Y-87831756D01*
X191412358Y-87831752D01*
X191272745Y-87730318D01*
X191230079Y-87674989D01*
X191224100Y-87605375D01*
X191256705Y-87543580D01*
X191272745Y-87529682D01*
X191412358Y-87428247D01*
X191412356Y-87428247D01*
X191412365Y-87428242D01*
X191568242Y-87272365D01*
X191697815Y-87094022D01*
X191797895Y-86897606D01*
X191866015Y-86687951D01*
X191900500Y-86470222D01*
X191900500Y-86249778D01*
X191866015Y-86032049D01*
X191842748Y-85960441D01*
X191797896Y-85822395D01*
X191797895Y-85822393D01*
X191755818Y-85739815D01*
X191697815Y-85625978D01*
X191678594Y-85599522D01*
X191568247Y-85447641D01*
X191568243Y-85447636D01*
X191412363Y-85291756D01*
X191412358Y-85291752D01*
X191272745Y-85190318D01*
X191230079Y-85134989D01*
X191224100Y-85065375D01*
X191256705Y-85003580D01*
X191272745Y-84989682D01*
X191412358Y-84888247D01*
X191412356Y-84888247D01*
X191412365Y-84888242D01*
X191568242Y-84732365D01*
X191697815Y-84554022D01*
X191797895Y-84357606D01*
X191866015Y-84147951D01*
X191900500Y-83930222D01*
X191900500Y-83709778D01*
X191866015Y-83492049D01*
X191797895Y-83282394D01*
X191797895Y-83282393D01*
X191763237Y-83214375D01*
X191697815Y-83085978D01*
X191681260Y-83063192D01*
X191568247Y-82907641D01*
X191568243Y-82907636D01*
X191412363Y-82751756D01*
X191412358Y-82751752D01*
X191272745Y-82650318D01*
X191230079Y-82594989D01*
X191224100Y-82525375D01*
X191256705Y-82463580D01*
X191272745Y-82449682D01*
X191412358Y-82348247D01*
X191412356Y-82348247D01*
X191412365Y-82348242D01*
X191568242Y-82192365D01*
X191697815Y-82014022D01*
X191797895Y-81817606D01*
X191866015Y-81607951D01*
X191900500Y-81390222D01*
X191900500Y-81169778D01*
X191866015Y-80952049D01*
X191797895Y-80742394D01*
X191797895Y-80742393D01*
X191763237Y-80674375D01*
X191697815Y-80545978D01*
X191676028Y-80515990D01*
X191568247Y-80367641D01*
X191568243Y-80367636D01*
X191412363Y-80211756D01*
X191412358Y-80211752D01*
X191272745Y-80110318D01*
X191230079Y-80054989D01*
X191224100Y-79985375D01*
X191256705Y-79923580D01*
X191272745Y-79909682D01*
X191412358Y-79808247D01*
X191412356Y-79808247D01*
X191412365Y-79808242D01*
X191568242Y-79652365D01*
X191697815Y-79474022D01*
X191797895Y-79277606D01*
X191866015Y-79067951D01*
X191900500Y-78850222D01*
X191900500Y-78629778D01*
X191866015Y-78412049D01*
X191797895Y-78202394D01*
X191797895Y-78202393D01*
X191763237Y-78134375D01*
X191697815Y-78005978D01*
X191655692Y-77948000D01*
X191568247Y-77827641D01*
X191568243Y-77827636D01*
X191412363Y-77671756D01*
X191412358Y-77671752D01*
X191272745Y-77570318D01*
X191230079Y-77514989D01*
X191224100Y-77445375D01*
X191256705Y-77383580D01*
X191272745Y-77369682D01*
X191412358Y-77268247D01*
X191412356Y-77268247D01*
X191412365Y-77268242D01*
X191568242Y-77112365D01*
X191697815Y-76934022D01*
X191797895Y-76737606D01*
X191866015Y-76527951D01*
X191895311Y-76342982D01*
X191925240Y-76279848D01*
X191984552Y-76242917D01*
X192054414Y-76243915D01*
X192105465Y-76274700D01*
X194943181Y-79112416D01*
X194976666Y-79173739D01*
X194979500Y-79200097D01*
X194979500Y-110530397D01*
X194959815Y-110597436D01*
X194911800Y-110640879D01*
X194898389Y-110647712D01*
X194732786Y-110768028D01*
X194588028Y-110912786D01*
X194467713Y-111078388D01*
X194440484Y-111131828D01*
X194392510Y-111182623D01*
X194324688Y-111199418D01*
X194258554Y-111176880D01*
X194219516Y-111131828D01*
X194192286Y-111078388D01*
X194071971Y-110912786D01*
X193927213Y-110768028D01*
X193761613Y-110647715D01*
X193761612Y-110647714D01*
X193761610Y-110647713D01*
X193704653Y-110618691D01*
X193579223Y-110554781D01*
X193384534Y-110491522D01*
X193209995Y-110463878D01*
X193182352Y-110459500D01*
X192977648Y-110459500D01*
X192953329Y-110463351D01*
X192775465Y-110491522D01*
X192580776Y-110554781D01*
X192398386Y-110647715D01*
X192232786Y-110768028D01*
X192088028Y-110912786D01*
X191967715Y-111078386D01*
X191874781Y-111260776D01*
X191811522Y-111455465D01*
X191786508Y-111613400D01*
X191779500Y-111657648D01*
X191779500Y-111862352D01*
X191783878Y-111889995D01*
X191811522Y-112064534D01*
X191874781Y-112259223D01*
X191928313Y-112364284D01*
X191956237Y-112419088D01*
X191967715Y-112441613D01*
X192088028Y-112607213D01*
X192232786Y-112751971D01*
X192387749Y-112864556D01*
X192398390Y-112872287D01*
X192514607Y-112931503D01*
X192580776Y-112965218D01*
X192580778Y-112965218D01*
X192580781Y-112965220D01*
X192685137Y-112999127D01*
X192775465Y-113028477D01*
X192876557Y-113044488D01*
X192977648Y-113060500D01*
X192977649Y-113060500D01*
X193182351Y-113060500D01*
X193182352Y-113060500D01*
X193384534Y-113028477D01*
X193579219Y-112965220D01*
X193761610Y-112872287D01*
X193854590Y-112804732D01*
X193927213Y-112751971D01*
X193927215Y-112751968D01*
X193927219Y-112751966D01*
X194071966Y-112607219D01*
X194071968Y-112607215D01*
X194071971Y-112607213D01*
X194124732Y-112534590D01*
X194192287Y-112441610D01*
X194219515Y-112388171D01*
X194267490Y-112337376D01*
X194335311Y-112320581D01*
X194401446Y-112343118D01*
X194440484Y-112388171D01*
X194456237Y-112419088D01*
X194467715Y-112441613D01*
X194588028Y-112607213D01*
X194732786Y-112751971D01*
X194887749Y-112864556D01*
X194898390Y-112872287D01*
X195014607Y-112931503D01*
X195080776Y-112965218D01*
X195080778Y-112965218D01*
X195080781Y-112965220D01*
X195185137Y-112999127D01*
X195275465Y-113028477D01*
X195376557Y-113044488D01*
X195477648Y-113060500D01*
X195477649Y-113060500D01*
X195682351Y-113060500D01*
X195682352Y-113060500D01*
X195884534Y-113028477D01*
X195898842Y-113023827D01*
X195968682Y-113021831D01*
X196024842Y-113054077D01*
X196975181Y-114004416D01*
X197008666Y-114065739D01*
X197011500Y-114092097D01*
X197011500Y-115610397D01*
X196991815Y-115677436D01*
X196943800Y-115720879D01*
X196930389Y-115727712D01*
X196764786Y-115848028D01*
X196620028Y-115992786D01*
X196499715Y-116158386D01*
X196406781Y-116340776D01*
X196343522Y-116535465D01*
X196311500Y-116737648D01*
X196311500Y-116942351D01*
X196343522Y-117144534D01*
X196406781Y-117339223D01*
X196467001Y-117457409D01*
X196488237Y-117499088D01*
X196499715Y-117521613D01*
X196620028Y-117687213D01*
X196620034Y-117687219D01*
X196764781Y-117831966D01*
X196930390Y-117952287D01*
X196943793Y-117959116D01*
X196994589Y-118007088D01*
X197011500Y-118069601D01*
X197011500Y-123357330D01*
X197011499Y-123357348D01*
X197011499Y-123523054D01*
X197011498Y-123523054D01*
X197011499Y-123523057D01*
X197052423Y-123675785D01*
X197081360Y-123725904D01*
X197131480Y-123812716D01*
X197182092Y-123863328D01*
X197187822Y-123871211D01*
X197196424Y-123895305D01*
X197208685Y-123917759D01*
X197208163Y-123928185D01*
X197211315Y-123937012D01*
X197206736Y-123956721D01*
X197205450Y-123982435D01*
X197164447Y-124108627D01*
X197164447Y-124108630D01*
X197127500Y-124341902D01*
X197127500Y-124578097D01*
X197164446Y-124811368D01*
X197237433Y-125035996D01*
X197344657Y-125246433D01*
X197483483Y-125437510D01*
X197650490Y-125604517D01*
X197841567Y-125743343D01*
X197940991Y-125794002D01*
X198052003Y-125850566D01*
X198052005Y-125850566D01*
X198052008Y-125850568D01*
X198172412Y-125889689D01*
X198276631Y-125923553D01*
X198509903Y-125960500D01*
X198509908Y-125960500D01*
X198746097Y-125960500D01*
X198979368Y-125923553D01*
X199203992Y-125850568D01*
X199414433Y-125743343D01*
X199605510Y-125604517D01*
X199772517Y-125437510D01*
X199911343Y-125246433D01*
X200018568Y-125035992D01*
X200091553Y-124811368D01*
X200128500Y-124578097D01*
X200128500Y-124341902D01*
X200091553Y-124108631D01*
X200027068Y-123910168D01*
X200018568Y-123884008D01*
X200018566Y-123884005D01*
X200018566Y-123884003D01*
X199911342Y-123673566D01*
X199772517Y-123482490D01*
X199605510Y-123315483D01*
X199414433Y-123176657D01*
X199203996Y-123069433D01*
X198979368Y-122996446D01*
X198746097Y-122959500D01*
X198746092Y-122959500D01*
X198509908Y-122959500D01*
X198509903Y-122959500D01*
X198355898Y-122983892D01*
X198286604Y-122974937D01*
X198233153Y-122929941D01*
X198212513Y-122863190D01*
X198212500Y-122861419D01*
X198212500Y-118069601D01*
X198232185Y-118002562D01*
X198280206Y-117959116D01*
X198293610Y-117952287D01*
X198459219Y-117831966D01*
X198603966Y-117687219D01*
X198603968Y-117687215D01*
X198603971Y-117687213D01*
X198724284Y-117521614D01*
X198724285Y-117521613D01*
X198724287Y-117521610D01*
X198731117Y-117508204D01*
X198779091Y-117457409D01*
X198841602Y-117440500D01*
X200703188Y-117440500D01*
X200759481Y-117454014D01*
X200821499Y-117485614D01*
X200922776Y-117537218D01*
X200922778Y-117537218D01*
X200922781Y-117537220D01*
X200997818Y-117561601D01*
X201117465Y-117600477D01*
X201218557Y-117616488D01*
X201319648Y-117632500D01*
X201319649Y-117632500D01*
X201524351Y-117632500D01*
X201524352Y-117632500D01*
X201726534Y-117600477D01*
X201921219Y-117537220D01*
X202103610Y-117444287D01*
X202196590Y-117376732D01*
X202269213Y-117323971D01*
X202269215Y-117323968D01*
X202269219Y-117323966D01*
X202413966Y-117179219D01*
X202413968Y-117179215D01*
X202413971Y-117179213D01*
X202534284Y-117013614D01*
X202534285Y-117013613D01*
X202534287Y-117013610D01*
X202541117Y-117000204D01*
X202589091Y-116949409D01*
X202651602Y-116932500D01*
X203153331Y-116932500D01*
X203153347Y-116932501D01*
X203160943Y-116932501D01*
X203319054Y-116932501D01*
X203319057Y-116932501D01*
X203471785Y-116891577D01*
X203521904Y-116862639D01*
X203608716Y-116812520D01*
X203720520Y-116700716D01*
X203720520Y-116700714D01*
X203730728Y-116690507D01*
X203730730Y-116690504D01*
X207875158Y-112546075D01*
X207936479Y-112512592D01*
X208001151Y-112515825D01*
X208015466Y-112520477D01*
X208217648Y-112552500D01*
X208217649Y-112552500D01*
X208422351Y-112552500D01*
X208422352Y-112552500D01*
X208624534Y-112520477D01*
X208819219Y-112457220D01*
X209001610Y-112364287D01*
X209094590Y-112296732D01*
X209167213Y-112243971D01*
X209167215Y-112243968D01*
X209167219Y-112243966D01*
X209311966Y-112099219D01*
X209311968Y-112099215D01*
X209311971Y-112099213D01*
X209364732Y-112026590D01*
X209432287Y-111933610D01*
X209459515Y-111880171D01*
X209507490Y-111829376D01*
X209575311Y-111812581D01*
X209641446Y-111835118D01*
X209680485Y-111880172D01*
X209707715Y-111933613D01*
X209828028Y-112099213D01*
X209828034Y-112099219D01*
X209972781Y-112243966D01*
X210138390Y-112364287D01*
X210151793Y-112371116D01*
X210202589Y-112419088D01*
X210219500Y-112481601D01*
X210219500Y-114253901D01*
X210199815Y-114320940D01*
X210183181Y-114341582D01*
X209486841Y-115037921D01*
X209425518Y-115071406D01*
X209360845Y-115068172D01*
X209346535Y-115063523D01*
X209245443Y-115047511D01*
X209144352Y-115031500D01*
X208939648Y-115031500D01*
X208915329Y-115035351D01*
X208737465Y-115063522D01*
X208542776Y-115126781D01*
X208360386Y-115219715D01*
X208194786Y-115340028D01*
X208050028Y-115484786D01*
X207929715Y-115650386D01*
X207836781Y-115832776D01*
X207773522Y-116027465D01*
X207741500Y-116229648D01*
X207741500Y-116434351D01*
X207773522Y-116636534D01*
X207836781Y-116831223D01*
X207929715Y-117013613D01*
X208050028Y-117179213D01*
X208050034Y-117179219D01*
X208194781Y-117323966D01*
X208360390Y-117444287D01*
X208373793Y-117451116D01*
X208424589Y-117499088D01*
X208441500Y-117561601D01*
X208441500Y-118825902D01*
X208421815Y-118892941D01*
X208405181Y-118913583D01*
X204311563Y-123007200D01*
X204250240Y-123040685D01*
X204185564Y-123037450D01*
X204059370Y-122996447D01*
X203826097Y-122959500D01*
X203826092Y-122959500D01*
X203589908Y-122959500D01*
X203589903Y-122959500D01*
X203356631Y-122996446D01*
X203132003Y-123069433D01*
X202921566Y-123176657D01*
X202812550Y-123255862D01*
X202730490Y-123315483D01*
X202730488Y-123315485D01*
X202730487Y-123315485D01*
X202563485Y-123482487D01*
X202563485Y-123482488D01*
X202563483Y-123482490D01*
X202503862Y-123564550D01*
X202424657Y-123673566D01*
X202317433Y-123884003D01*
X202244446Y-124108631D01*
X202207500Y-124341902D01*
X202207500Y-124578097D01*
X202244446Y-124811368D01*
X202317433Y-125035996D01*
X202424657Y-125246433D01*
X202563483Y-125437510D01*
X202730490Y-125604517D01*
X202921567Y-125743343D01*
X203020991Y-125794002D01*
X203132003Y-125850566D01*
X203132005Y-125850566D01*
X203132008Y-125850568D01*
X203252412Y-125889689D01*
X203356631Y-125923553D01*
X203589903Y-125960500D01*
X203589908Y-125960500D01*
X203826097Y-125960500D01*
X204059368Y-125923553D01*
X204283992Y-125850568D01*
X204494433Y-125743343D01*
X204685510Y-125604517D01*
X204852517Y-125437510D01*
X204991343Y-125246433D01*
X205098568Y-125035992D01*
X205171553Y-124811368D01*
X205208500Y-124578097D01*
X205208500Y-124341902D01*
X205171553Y-124108635D01*
X205171553Y-124108632D01*
X205130547Y-123982433D01*
X205128553Y-123912593D01*
X205160796Y-123856437D01*
X209410713Y-119606521D01*
X209410716Y-119606520D01*
X209522520Y-119494716D01*
X209572639Y-119407904D01*
X209601577Y-119357785D01*
X209642500Y-119205057D01*
X209642500Y-119046943D01*
X209642500Y-117561601D01*
X209662185Y-117494562D01*
X209710206Y-117451116D01*
X209723610Y-117444287D01*
X209889219Y-117323966D01*
X210033966Y-117179219D01*
X210033968Y-117179215D01*
X210033971Y-117179213D01*
X210086732Y-117106590D01*
X210154287Y-117013610D01*
X210247220Y-116831219D01*
X210310477Y-116636534D01*
X210342500Y-116434352D01*
X210342500Y-116229648D01*
X210310477Y-116027466D01*
X210305826Y-116013154D01*
X210303832Y-115943315D01*
X210336075Y-115887159D01*
X211300520Y-114922716D01*
X211379577Y-114785784D01*
X211420501Y-114633057D01*
X211420501Y-114474942D01*
X211420501Y-114467347D01*
X211420500Y-114467329D01*
X211420500Y-112481601D01*
X211440185Y-112414562D01*
X211488206Y-112371116D01*
X211501610Y-112364287D01*
X211667219Y-112243966D01*
X211811966Y-112099219D01*
X211811968Y-112099215D01*
X211811971Y-112099213D01*
X211864732Y-112026590D01*
X211932287Y-111933610D01*
X212025220Y-111751219D01*
X212088477Y-111556534D01*
X212120500Y-111354352D01*
X212120500Y-111149648D01*
X212106336Y-111060220D01*
X212088477Y-110947465D01*
X212025218Y-110752776D01*
X211971685Y-110647713D01*
X211932287Y-110570390D01*
X211924556Y-110559749D01*
X211811971Y-110404786D01*
X211667213Y-110260028D01*
X211501610Y-110139712D01*
X211488200Y-110132879D01*
X211437406Y-110084903D01*
X211420500Y-110022397D01*
X211420500Y-99360096D01*
X211440185Y-99293057D01*
X211456814Y-99272420D01*
X215375797Y-95353436D01*
X215437118Y-95319953D01*
X215501794Y-95323188D01*
X215572049Y-95346015D01*
X215789778Y-95380500D01*
X215789779Y-95380500D01*
X216010221Y-95380500D01*
X216010222Y-95380500D01*
X216227951Y-95346015D01*
X216437606Y-95277895D01*
X216634022Y-95177815D01*
X216812365Y-95048242D01*
X216968242Y-94892365D01*
X217097815Y-94714022D01*
X217197895Y-94517606D01*
X217266015Y-94307951D01*
X217300500Y-94090222D01*
X217300500Y-93869778D01*
X217266015Y-93652049D01*
X217210366Y-93480776D01*
X217197896Y-93442396D01*
X217197895Y-93442393D01*
X217163237Y-93374375D01*
X217097815Y-93245978D01*
X217051685Y-93182485D01*
X216968247Y-93067641D01*
X216968243Y-93067636D01*
X216812363Y-92911756D01*
X216812358Y-92911752D01*
X216672745Y-92810318D01*
X216630079Y-92754989D01*
X216624100Y-92685375D01*
X216656705Y-92623580D01*
X216672745Y-92609682D01*
X216812358Y-92508247D01*
X216812356Y-92508247D01*
X216812365Y-92508242D01*
X216968242Y-92352365D01*
X217097815Y-92174022D01*
X217197895Y-91977606D01*
X217266015Y-91767951D01*
X217300500Y-91550222D01*
X217300500Y-91329778D01*
X217266015Y-91112049D01*
X217197895Y-90902394D01*
X217197895Y-90902393D01*
X217163237Y-90834375D01*
X217097815Y-90705978D01*
X217081260Y-90683192D01*
X216968247Y-90527641D01*
X216968243Y-90527636D01*
X216812363Y-90371756D01*
X216812358Y-90371752D01*
X216672745Y-90270318D01*
X216630079Y-90214989D01*
X216624100Y-90145375D01*
X216656705Y-90083580D01*
X216672745Y-90069682D01*
X216812358Y-89968247D01*
X216812356Y-89968247D01*
X216812365Y-89968242D01*
X216968242Y-89812365D01*
X217097815Y-89634022D01*
X217197895Y-89437606D01*
X217266015Y-89227951D01*
X217300500Y-89010222D01*
X217300500Y-88789778D01*
X217266015Y-88572049D01*
X217197895Y-88362394D01*
X217197895Y-88362393D01*
X217163237Y-88294375D01*
X217097815Y-88165978D01*
X217030423Y-88073220D01*
X216968247Y-87987641D01*
X216968243Y-87987636D01*
X216812363Y-87831756D01*
X216812358Y-87831752D01*
X216672745Y-87730318D01*
X216630079Y-87674989D01*
X216624100Y-87605375D01*
X216656705Y-87543580D01*
X216672745Y-87529682D01*
X216812358Y-87428247D01*
X216812356Y-87428247D01*
X216812365Y-87428242D01*
X216968242Y-87272365D01*
X217097815Y-87094022D01*
X217197895Y-86897606D01*
X217266015Y-86687951D01*
X217300500Y-86470222D01*
X217300500Y-86249778D01*
X217266015Y-86032049D01*
X217242748Y-85960441D01*
X217197896Y-85822395D01*
X217197895Y-85822393D01*
X217155818Y-85739815D01*
X217097815Y-85625978D01*
X217078594Y-85599522D01*
X216968247Y-85447641D01*
X216968243Y-85447636D01*
X216812363Y-85291756D01*
X216812358Y-85291752D01*
X216672745Y-85190318D01*
X216630079Y-85134989D01*
X216624100Y-85065375D01*
X216656705Y-85003580D01*
X216672745Y-84989682D01*
X216812358Y-84888247D01*
X216812356Y-84888247D01*
X216812365Y-84888242D01*
X216968242Y-84732365D01*
X217097815Y-84554022D01*
X217197895Y-84357606D01*
X217266015Y-84147951D01*
X217300500Y-83930222D01*
X217300500Y-83709778D01*
X217266015Y-83492049D01*
X217197895Y-83282394D01*
X217197895Y-83282393D01*
X217163237Y-83214375D01*
X217097815Y-83085978D01*
X217081260Y-83063192D01*
X216968247Y-82907641D01*
X216968243Y-82907636D01*
X216812363Y-82751756D01*
X216812358Y-82751752D01*
X216672745Y-82650318D01*
X216630079Y-82594989D01*
X216624100Y-82525375D01*
X216656705Y-82463580D01*
X216672745Y-82449682D01*
X216812358Y-82348247D01*
X216812356Y-82348247D01*
X216812365Y-82348242D01*
X216968242Y-82192365D01*
X217097815Y-82014022D01*
X217197895Y-81817606D01*
X217266015Y-81607951D01*
X217300500Y-81390222D01*
X217300500Y-81169778D01*
X217266015Y-80952049D01*
X217197895Y-80742394D01*
X217197895Y-80742393D01*
X217163237Y-80674375D01*
X217097815Y-80545978D01*
X217076028Y-80515990D01*
X216968247Y-80367641D01*
X216968243Y-80367636D01*
X216812363Y-80211756D01*
X216812358Y-80211752D01*
X216672745Y-80110318D01*
X216630079Y-80054989D01*
X216624100Y-79985375D01*
X216656705Y-79923580D01*
X216672745Y-79909682D01*
X216812358Y-79808247D01*
X216812356Y-79808247D01*
X216812365Y-79808242D01*
X216968242Y-79652365D01*
X217097815Y-79474022D01*
X217197895Y-79277606D01*
X217266015Y-79067951D01*
X217300500Y-78850222D01*
X217300500Y-78629778D01*
X217266015Y-78412049D01*
X217197895Y-78202394D01*
X217197895Y-78202393D01*
X217163237Y-78134375D01*
X217097815Y-78005978D01*
X217055692Y-77948000D01*
X216968247Y-77827641D01*
X216968243Y-77827636D01*
X216812363Y-77671756D01*
X216812358Y-77671752D01*
X216672745Y-77570318D01*
X216630079Y-77514989D01*
X216624100Y-77445375D01*
X216656705Y-77383580D01*
X216672745Y-77369682D01*
X216812358Y-77268247D01*
X216812356Y-77268247D01*
X216812365Y-77268242D01*
X216968242Y-77112365D01*
X217097815Y-76934022D01*
X217197895Y-76737606D01*
X217266015Y-76527951D01*
X217300500Y-76310222D01*
X217300500Y-76089778D01*
X217266015Y-75872049D01*
X217197895Y-75662394D01*
X217197895Y-75662393D01*
X217163237Y-75594375D01*
X217097815Y-75465978D01*
X217081260Y-75443192D01*
X216968247Y-75287641D01*
X216968243Y-75287636D01*
X216812361Y-75131754D01*
X216782857Y-75110319D01*
X216740190Y-75054989D01*
X216734210Y-74985376D01*
X216766816Y-74923581D01*
X216782857Y-74909681D01*
X216812361Y-74888245D01*
X216812361Y-74888244D01*
X216812365Y-74888242D01*
X216968242Y-74732365D01*
X217097815Y-74554022D01*
X217197895Y-74357606D01*
X217266015Y-74147951D01*
X217300500Y-73930222D01*
X217300500Y-73709778D01*
X217266015Y-73492049D01*
X217200784Y-73291286D01*
X217197896Y-73282396D01*
X217197895Y-73282393D01*
X217163237Y-73214375D01*
X217097815Y-73085978D01*
X217064276Y-73039815D01*
X216968247Y-72907641D01*
X216968243Y-72907636D01*
X216812363Y-72751756D01*
X216812358Y-72751752D01*
X216634025Y-72622187D01*
X216634024Y-72622186D01*
X216634022Y-72622185D01*
X216552179Y-72580483D01*
X216501385Y-72532510D01*
X216484590Y-72464689D01*
X216507127Y-72398554D01*
X216552179Y-72359516D01*
X216634022Y-72317815D01*
X216812365Y-72188242D01*
X216968242Y-72032365D01*
X217097815Y-71854022D01*
X217197895Y-71657606D01*
X217266015Y-71447951D01*
X217300500Y-71230222D01*
X217300500Y-71009778D01*
X217266015Y-70792049D01*
X217197895Y-70582394D01*
X217197895Y-70582393D01*
X217163237Y-70514375D01*
X217097815Y-70385978D01*
X217071108Y-70349219D01*
X216968247Y-70207641D01*
X216968243Y-70207636D01*
X216812363Y-70051756D01*
X216812358Y-70051752D01*
X216672745Y-69950318D01*
X216630079Y-69894989D01*
X216624100Y-69825375D01*
X216656705Y-69763580D01*
X216672745Y-69749682D01*
X216812358Y-69648247D01*
X216812356Y-69648247D01*
X216812365Y-69648242D01*
X216968242Y-69492365D01*
X217097815Y-69314022D01*
X217197895Y-69117606D01*
X217266015Y-68907951D01*
X217300500Y-68690222D01*
X217300500Y-68469778D01*
X217266015Y-68252049D01*
X217208789Y-68075922D01*
X217197896Y-68042396D01*
X217197895Y-68042393D01*
X217163237Y-67974375D01*
X217097815Y-67845978D01*
X217081260Y-67823192D01*
X216968247Y-67667641D01*
X216968243Y-67667636D01*
X216812363Y-67511756D01*
X216812358Y-67511752D01*
X216672745Y-67410318D01*
X216630079Y-67354989D01*
X216624100Y-67285375D01*
X216656705Y-67223580D01*
X216672745Y-67209682D01*
X216812358Y-67108247D01*
X216812356Y-67108247D01*
X216812365Y-67108242D01*
X216968242Y-66952365D01*
X217097815Y-66774022D01*
X217197895Y-66577606D01*
X217266015Y-66367951D01*
X217300500Y-66150222D01*
X217300500Y-65929778D01*
X217266015Y-65712049D01*
X217197895Y-65502394D01*
X217197895Y-65502393D01*
X217163237Y-65434375D01*
X217097815Y-65305978D01*
X217081260Y-65283192D01*
X216968247Y-65127641D01*
X216968243Y-65127636D01*
X216812363Y-64971756D01*
X216812358Y-64971752D01*
X216672745Y-64870318D01*
X216630079Y-64814989D01*
X216624100Y-64745375D01*
X216656705Y-64683580D01*
X216672745Y-64669682D01*
X216812358Y-64568247D01*
X216812356Y-64568247D01*
X216812365Y-64568242D01*
X216968242Y-64412365D01*
X217097815Y-64234022D01*
X217197895Y-64037606D01*
X217266015Y-63827951D01*
X217300500Y-63610222D01*
X217300500Y-63389778D01*
X217266015Y-63172049D01*
X217197895Y-62962394D01*
X217197895Y-62962393D01*
X217163237Y-62894375D01*
X217097815Y-62765978D01*
X217081260Y-62743192D01*
X216968247Y-62587641D01*
X216968243Y-62587636D01*
X216812363Y-62431756D01*
X216812358Y-62431752D01*
X216672745Y-62330318D01*
X216630079Y-62274989D01*
X216624100Y-62205375D01*
X216656705Y-62143580D01*
X216672745Y-62129682D01*
X216812358Y-62028247D01*
X216812356Y-62028247D01*
X216812365Y-62028242D01*
X216968242Y-61872365D01*
X217097815Y-61694022D01*
X217197895Y-61497606D01*
X217266015Y-61287951D01*
X217300500Y-61070222D01*
X217300500Y-60849778D01*
X217266015Y-60632049D01*
X217197895Y-60422394D01*
X217197895Y-60422393D01*
X217163237Y-60354375D01*
X217097815Y-60225978D01*
X217081260Y-60203192D01*
X216968247Y-60047641D01*
X216968243Y-60047636D01*
X216812363Y-59891756D01*
X216812358Y-59891752D01*
X216672745Y-59790318D01*
X216630079Y-59734989D01*
X216624100Y-59665375D01*
X216656705Y-59603580D01*
X216672745Y-59589682D01*
X216812358Y-59488247D01*
X216812356Y-59488247D01*
X216812365Y-59488242D01*
X216968242Y-59332365D01*
X217097815Y-59154022D01*
X217197895Y-58957606D01*
X217266015Y-58747951D01*
X217300500Y-58530222D01*
X217300500Y-58309778D01*
X217266015Y-58092049D01*
X217197895Y-57882394D01*
X217197895Y-57882393D01*
X217163237Y-57814375D01*
X217097815Y-57685978D01*
X217081260Y-57663192D01*
X216968247Y-57507641D01*
X216968243Y-57507636D01*
X216812363Y-57351756D01*
X216812358Y-57351752D01*
X216634025Y-57222187D01*
X216634024Y-57222186D01*
X216634022Y-57222185D01*
X216571096Y-57190122D01*
X216437606Y-57122104D01*
X216437603Y-57122103D01*
X216227952Y-57053985D01*
X216119086Y-57036742D01*
X216010222Y-57019500D01*
X215789778Y-57019500D01*
X215717201Y-57030995D01*
X215572047Y-57053985D01*
X215362396Y-57122103D01*
X215362393Y-57122104D01*
X215165974Y-57222187D01*
X214987641Y-57351752D01*
X214987636Y-57351756D01*
X214831756Y-57507636D01*
X214831752Y-57507641D01*
X214702187Y-57685974D01*
X214602104Y-57882393D01*
X214602103Y-57882396D01*
X214533985Y-58092047D01*
X214499500Y-58309778D01*
X214499500Y-58530221D01*
X214533985Y-58747952D01*
X214602103Y-58957603D01*
X214602104Y-58957606D01*
X214702187Y-59154025D01*
X214831752Y-59332358D01*
X214831756Y-59332363D01*
X214987636Y-59488243D01*
X214987641Y-59488247D01*
X215127254Y-59589682D01*
X215169920Y-59645012D01*
X215175899Y-59714625D01*
X215143293Y-59776420D01*
X215127254Y-59790318D01*
X214987641Y-59891752D01*
X214987636Y-59891756D01*
X214831756Y-60047636D01*
X214831752Y-60047641D01*
X214702187Y-60225974D01*
X214602104Y-60422393D01*
X214602103Y-60422396D01*
X214533985Y-60632047D01*
X214499500Y-60849778D01*
X214499500Y-61070221D01*
X214533985Y-61287952D01*
X214602103Y-61497603D01*
X214602104Y-61497606D01*
X214702187Y-61694025D01*
X214831752Y-61872358D01*
X214831756Y-61872363D01*
X214987636Y-62028243D01*
X214987641Y-62028247D01*
X215127254Y-62129682D01*
X215169920Y-62185012D01*
X215175899Y-62254625D01*
X215143293Y-62316420D01*
X215127254Y-62330318D01*
X214987641Y-62431752D01*
X214987636Y-62431756D01*
X214831756Y-62587636D01*
X214831752Y-62587641D01*
X214702187Y-62765974D01*
X214602104Y-62962393D01*
X214602103Y-62962396D01*
X214533985Y-63172047D01*
X214499500Y-63389778D01*
X214499500Y-63610221D01*
X214533985Y-63827952D01*
X214602103Y-64037603D01*
X214602104Y-64037606D01*
X214702187Y-64234025D01*
X214831752Y-64412358D01*
X214831756Y-64412363D01*
X214987636Y-64568243D01*
X214987641Y-64568247D01*
X215127254Y-64669682D01*
X215169920Y-64725012D01*
X215175899Y-64794625D01*
X215143293Y-64856420D01*
X215127254Y-64870318D01*
X214987641Y-64971752D01*
X214987636Y-64971756D01*
X214831756Y-65127636D01*
X214831752Y-65127641D01*
X214702187Y-65305974D01*
X214602104Y-65502393D01*
X214602103Y-65502396D01*
X214533985Y-65712047D01*
X214499500Y-65929778D01*
X214499500Y-66150221D01*
X214533985Y-66367952D01*
X214602103Y-66577603D01*
X214602104Y-66577606D01*
X214702187Y-66774025D01*
X214831752Y-66952358D01*
X214831756Y-66952363D01*
X214987636Y-67108243D01*
X214987641Y-67108247D01*
X215127254Y-67209682D01*
X215169920Y-67265012D01*
X215175899Y-67334625D01*
X215143293Y-67396420D01*
X215127254Y-67410318D01*
X214987641Y-67511752D01*
X214987636Y-67511756D01*
X214831756Y-67667636D01*
X214831752Y-67667641D01*
X214702187Y-67845974D01*
X214602104Y-68042393D01*
X214602103Y-68042396D01*
X214533985Y-68252047D01*
X214500754Y-68461859D01*
X214499500Y-68469778D01*
X214499500Y-68690222D01*
X214500747Y-68698097D01*
X214533985Y-68907952D01*
X214602103Y-69117603D01*
X214602104Y-69117606D01*
X214702187Y-69314025D01*
X214831752Y-69492358D01*
X214831756Y-69492363D01*
X214987636Y-69648243D01*
X214987641Y-69648247D01*
X215127254Y-69749682D01*
X215169920Y-69805012D01*
X215175899Y-69874625D01*
X215143293Y-69936420D01*
X215127254Y-69950318D01*
X214987641Y-70051752D01*
X214987636Y-70051756D01*
X214831756Y-70207636D01*
X214831752Y-70207641D01*
X214702187Y-70385974D01*
X214602104Y-70582393D01*
X214602103Y-70582396D01*
X214533985Y-70792047D01*
X214499500Y-71009778D01*
X214499500Y-71230221D01*
X214533985Y-71447952D01*
X214602103Y-71657603D01*
X214602104Y-71657606D01*
X214702187Y-71854025D01*
X214831752Y-72032358D01*
X214831756Y-72032363D01*
X214987636Y-72188243D01*
X214987641Y-72188247D01*
X215040126Y-72226379D01*
X215165978Y-72317815D01*
X215247818Y-72359515D01*
X215298614Y-72407490D01*
X215315409Y-72475311D01*
X215292871Y-72541446D01*
X215247818Y-72580485D01*
X215165974Y-72622187D01*
X214987641Y-72751752D01*
X214987636Y-72751756D01*
X214831756Y-72907636D01*
X214831752Y-72907641D01*
X214702187Y-73085974D01*
X214602104Y-73282393D01*
X214602103Y-73282396D01*
X214533985Y-73492047D01*
X214499500Y-73709778D01*
X214499500Y-73930221D01*
X214533985Y-74147952D01*
X214602103Y-74357603D01*
X214602104Y-74357606D01*
X214702187Y-74554025D01*
X214831752Y-74732358D01*
X214831756Y-74732363D01*
X214987636Y-74888243D01*
X215017144Y-74909682D01*
X215059809Y-74965012D01*
X215065788Y-75034626D01*
X215033182Y-75096421D01*
X215017144Y-75110318D01*
X214987636Y-75131756D01*
X214831756Y-75287636D01*
X214831752Y-75287641D01*
X214702187Y-75465974D01*
X214602104Y-75662393D01*
X214602103Y-75662396D01*
X214533985Y-75872047D01*
X214499500Y-76089778D01*
X214499500Y-76310221D01*
X214533985Y-76527952D01*
X214602103Y-76737603D01*
X214602104Y-76737606D01*
X214702187Y-76934025D01*
X214831752Y-77112358D01*
X214831756Y-77112363D01*
X214987636Y-77268243D01*
X214987641Y-77268247D01*
X215127254Y-77369682D01*
X215169920Y-77425012D01*
X215175899Y-77494625D01*
X215143293Y-77556420D01*
X215127254Y-77570318D01*
X214987641Y-77671752D01*
X214987636Y-77671756D01*
X214831756Y-77827636D01*
X214831752Y-77827641D01*
X214702187Y-78005974D01*
X214602104Y-78202393D01*
X214602103Y-78202396D01*
X214533985Y-78412047D01*
X214501351Y-78618092D01*
X214499500Y-78629778D01*
X214499500Y-78850222D01*
X214511806Y-78927920D01*
X214533985Y-79067952D01*
X214602103Y-79277603D01*
X214602104Y-79277606D01*
X214702187Y-79474025D01*
X214831752Y-79652358D01*
X214831756Y-79652363D01*
X214987636Y-79808243D01*
X214987641Y-79808247D01*
X215127254Y-79909682D01*
X215169920Y-79965012D01*
X215175899Y-80034625D01*
X215143293Y-80096420D01*
X215127254Y-80110318D01*
X214987641Y-80211752D01*
X214987636Y-80211756D01*
X214831756Y-80367636D01*
X214831752Y-80367641D01*
X214702187Y-80545974D01*
X214602104Y-80742393D01*
X214602103Y-80742396D01*
X214533985Y-80952047D01*
X214533985Y-80952049D01*
X214499500Y-81169778D01*
X214499500Y-81390222D01*
X214500747Y-81398097D01*
X214533985Y-81607952D01*
X214602103Y-81817603D01*
X214602104Y-81817606D01*
X214702187Y-82014025D01*
X214831752Y-82192358D01*
X214831756Y-82192363D01*
X214987636Y-82348243D01*
X214987641Y-82348247D01*
X215127254Y-82449682D01*
X215169920Y-82505012D01*
X215175899Y-82574625D01*
X215143293Y-82636420D01*
X215127254Y-82650318D01*
X214987641Y-82751752D01*
X214987636Y-82751756D01*
X214831756Y-82907636D01*
X214831752Y-82907641D01*
X214702187Y-83085974D01*
X214602104Y-83282393D01*
X214602103Y-83282396D01*
X214533985Y-83492047D01*
X214499500Y-83709778D01*
X214499500Y-83930221D01*
X214533985Y-84147952D01*
X214602103Y-84357603D01*
X214602104Y-84357606D01*
X214702187Y-84554025D01*
X214831752Y-84732358D01*
X214831756Y-84732363D01*
X214987636Y-84888243D01*
X214987641Y-84888247D01*
X215127254Y-84989682D01*
X215169920Y-85045012D01*
X215175899Y-85114625D01*
X215143293Y-85176420D01*
X215127254Y-85190318D01*
X214987641Y-85291752D01*
X214987636Y-85291756D01*
X214831756Y-85447636D01*
X214831752Y-85447641D01*
X214702187Y-85625974D01*
X214602104Y-85822393D01*
X214602104Y-85822395D01*
X214533985Y-86032047D01*
X214502445Y-86231181D01*
X214499500Y-86249778D01*
X214499500Y-86470222D01*
X214500747Y-86478097D01*
X214533985Y-86687952D01*
X214602103Y-86897603D01*
X214602104Y-86897606D01*
X214702187Y-87094025D01*
X214831752Y-87272358D01*
X214831756Y-87272363D01*
X214987636Y-87428243D01*
X214987641Y-87428247D01*
X215127254Y-87529682D01*
X215169920Y-87585012D01*
X215175899Y-87654625D01*
X215143293Y-87716420D01*
X215127254Y-87730318D01*
X214987641Y-87831752D01*
X214987636Y-87831756D01*
X214831756Y-87987636D01*
X214831752Y-87987641D01*
X214702187Y-88165974D01*
X214602104Y-88362393D01*
X214602103Y-88362396D01*
X214533985Y-88572047D01*
X214499500Y-88789778D01*
X214499500Y-89010221D01*
X214533985Y-89227952D01*
X214602103Y-89437603D01*
X214602104Y-89437606D01*
X214702187Y-89634025D01*
X214831752Y-89812358D01*
X214831756Y-89812363D01*
X214987636Y-89968243D01*
X214987641Y-89968247D01*
X215127254Y-90069682D01*
X215169920Y-90125012D01*
X215175899Y-90194625D01*
X215143293Y-90256420D01*
X215127254Y-90270318D01*
X214987641Y-90371752D01*
X214987636Y-90371756D01*
X214831756Y-90527636D01*
X214831752Y-90527641D01*
X214702187Y-90705974D01*
X214602104Y-90902393D01*
X214602103Y-90902396D01*
X214533985Y-91112047D01*
X214499500Y-91329778D01*
X214499500Y-91550221D01*
X214533985Y-91767952D01*
X214602103Y-91977603D01*
X214602104Y-91977606D01*
X214702187Y-92174025D01*
X214831752Y-92352358D01*
X214831756Y-92352363D01*
X214987636Y-92508243D01*
X214987641Y-92508247D01*
X215127254Y-92609682D01*
X215169920Y-92665012D01*
X215175899Y-92734625D01*
X215143293Y-92796420D01*
X215127254Y-92810318D01*
X214987641Y-92911752D01*
X214987636Y-92911756D01*
X214831756Y-93067636D01*
X214831752Y-93067641D01*
X214702187Y-93245974D01*
X214602104Y-93442393D01*
X214602103Y-93442396D01*
X214533985Y-93652047D01*
X214499500Y-93869778D01*
X214499500Y-94090221D01*
X214533985Y-94307952D01*
X214556811Y-94378203D01*
X214558806Y-94448044D01*
X214526561Y-94504202D01*
X210451286Y-98579478D01*
X210339481Y-98691282D01*
X210339479Y-98691285D01*
X210289361Y-98778094D01*
X210289359Y-98778096D01*
X210260425Y-98828209D01*
X210260424Y-98828210D01*
X210260423Y-98828215D01*
X210219499Y-98980943D01*
X210219499Y-98980945D01*
X210219499Y-99149046D01*
X210219500Y-99149059D01*
X210219500Y-110022397D01*
X210199815Y-110089436D01*
X210151800Y-110132879D01*
X210138389Y-110139712D01*
X209972786Y-110260028D01*
X209828028Y-110404786D01*
X209707713Y-110570388D01*
X209680484Y-110623828D01*
X209632510Y-110674623D01*
X209564688Y-110691418D01*
X209498554Y-110668880D01*
X209459516Y-110623828D01*
X209432286Y-110570388D01*
X209311971Y-110404786D01*
X209167213Y-110260028D01*
X209001613Y-110139715D01*
X209001612Y-110139714D01*
X209001610Y-110139713D01*
X208944653Y-110110691D01*
X208819223Y-110046781D01*
X208624534Y-109983522D01*
X208449995Y-109955878D01*
X208422352Y-109951500D01*
X208217648Y-109951500D01*
X208193329Y-109955351D01*
X208015465Y-109983522D01*
X207820776Y-110046781D01*
X207638386Y-110139715D01*
X207472786Y-110260028D01*
X207328028Y-110404786D01*
X207207715Y-110570386D01*
X207114781Y-110752776D01*
X207051522Y-110947465D01*
X207019500Y-111149648D01*
X207019500Y-111354351D01*
X207051522Y-111556534D01*
X207056173Y-111570848D01*
X207058165Y-111640690D01*
X207025921Y-111696842D01*
X203027584Y-115695181D01*
X202966261Y-115728666D01*
X202939903Y-115731500D01*
X202651602Y-115731500D01*
X202584563Y-115711815D01*
X202541117Y-115663795D01*
X202534284Y-115650385D01*
X202413971Y-115484786D01*
X202269213Y-115340028D01*
X202103613Y-115219715D01*
X202103612Y-115219714D01*
X202103610Y-115219713D01*
X202046653Y-115190691D01*
X201921223Y-115126781D01*
X201726534Y-115063522D01*
X201551995Y-115035878D01*
X201524352Y-115031500D01*
X201319648Y-115031500D01*
X201295329Y-115035351D01*
X201117465Y-115063522D01*
X200922776Y-115126781D01*
X200740386Y-115219715D01*
X200574786Y-115340028D01*
X200430028Y-115484786D01*
X200309715Y-115650386D01*
X200216781Y-115832776D01*
X200153522Y-116027465D01*
X200136507Y-116134898D01*
X200106578Y-116198033D01*
X200047266Y-116234964D01*
X200014034Y-116239500D01*
X198841602Y-116239500D01*
X198774563Y-116219815D01*
X198731117Y-116171795D01*
X198724284Y-116158385D01*
X198603971Y-115992786D01*
X198459213Y-115848028D01*
X198293610Y-115727712D01*
X198280200Y-115720879D01*
X198229406Y-115672903D01*
X198212500Y-115610397D01*
X198212500Y-113881059D01*
X198212501Y-113881046D01*
X198212501Y-113712945D01*
X198212501Y-113712943D01*
X198171577Y-113560215D01*
X198127324Y-113483567D01*
X198092520Y-113423284D01*
X197980716Y-113311480D01*
X197980715Y-113311479D01*
X197976385Y-113307149D01*
X197976374Y-113307139D01*
X196874077Y-112204842D01*
X196840592Y-112143519D01*
X196843828Y-112078841D01*
X196848477Y-112064534D01*
X196880500Y-111862352D01*
X196880500Y-111657648D01*
X196848477Y-111455466D01*
X196785220Y-111260781D01*
X196785218Y-111260778D01*
X196785218Y-111260776D01*
X196742470Y-111176880D01*
X196692287Y-111078390D01*
X196611567Y-110967287D01*
X196571971Y-110912786D01*
X196427213Y-110768028D01*
X196261610Y-110647712D01*
X196248200Y-110640879D01*
X196197406Y-110592903D01*
X196180500Y-110530397D01*
X196180500Y-78989059D01*
X196180501Y-78989046D01*
X196180501Y-78820945D01*
X196180501Y-78820943D01*
X196139577Y-78668215D01*
X196110639Y-78618095D01*
X196060520Y-78531284D01*
X195948716Y-78419480D01*
X195948715Y-78419479D01*
X195944385Y-78415149D01*
X195944374Y-78415139D01*
X191873438Y-74344203D01*
X191839953Y-74282880D01*
X191843187Y-74218205D01*
X191866015Y-74147951D01*
X191900500Y-73930222D01*
X191900500Y-73709778D01*
X191866015Y-73492049D01*
X191800784Y-73291286D01*
X191797896Y-73282396D01*
X191797895Y-73282393D01*
X191763237Y-73214375D01*
X191697815Y-73085978D01*
X191664276Y-73039815D01*
X191568247Y-72907641D01*
X191568243Y-72907636D01*
X191412363Y-72751756D01*
X191412358Y-72751752D01*
X191234025Y-72622187D01*
X191234024Y-72622186D01*
X191234022Y-72622185D01*
X191207247Y-72608542D01*
X191156452Y-72560568D01*
X191139657Y-72492747D01*
X191162195Y-72426612D01*
X191207249Y-72387573D01*
X191260226Y-72360580D01*
X191260225Y-72360580D01*
X191260228Y-72360579D01*
X191444937Y-72226379D01*
X191606379Y-72064937D01*
X191740579Y-71880228D01*
X191844231Y-71676799D01*
X191914784Y-71459660D01*
X191931870Y-71351785D01*
X191950500Y-71234162D01*
X191950500Y-71005837D01*
X191914784Y-70780339D01*
X191844229Y-70563196D01*
X191789550Y-70455884D01*
X191740579Y-70359772D01*
X191606379Y-70175063D01*
X191444937Y-70013621D01*
X191315275Y-69919415D01*
X191272611Y-69864085D01*
X191266632Y-69794472D01*
X191299238Y-69732677D01*
X191315275Y-69718781D01*
X191412365Y-69648242D01*
X191568242Y-69492365D01*
X191697815Y-69314022D01*
X191797895Y-69117606D01*
X191866015Y-68907951D01*
X191900500Y-68690222D01*
X191900500Y-68469778D01*
X191866015Y-68252049D01*
X191808789Y-68075922D01*
X191797896Y-68042396D01*
X191797895Y-68042393D01*
X191763237Y-67974375D01*
X191697815Y-67845978D01*
X191681260Y-67823192D01*
X191568247Y-67667641D01*
X191568243Y-67667636D01*
X191412363Y-67511756D01*
X191412358Y-67511752D01*
X191272745Y-67410318D01*
X191230079Y-67354989D01*
X191224100Y-67285375D01*
X191256705Y-67223580D01*
X191272745Y-67209682D01*
X191412358Y-67108247D01*
X191412356Y-67108247D01*
X191412365Y-67108242D01*
X191568242Y-66952365D01*
X191697815Y-66774022D01*
X191797895Y-66577606D01*
X191866015Y-66367951D01*
X191900500Y-66150222D01*
X191900500Y-65929778D01*
X191866015Y-65712049D01*
X191797895Y-65502394D01*
X191797895Y-65502393D01*
X191763237Y-65434375D01*
X191697815Y-65305978D01*
X191681260Y-65283192D01*
X191568247Y-65127641D01*
X191568243Y-65127636D01*
X191412363Y-64971756D01*
X191412358Y-64971752D01*
X191272745Y-64870318D01*
X191230079Y-64814989D01*
X191224100Y-64745375D01*
X191256705Y-64683580D01*
X191272745Y-64669682D01*
X191412358Y-64568247D01*
X191412356Y-64568247D01*
X191412365Y-64568242D01*
X191568242Y-64412365D01*
X191697815Y-64234022D01*
X191797895Y-64037606D01*
X191866015Y-63827951D01*
X191900500Y-63610222D01*
X191900500Y-63389778D01*
X191866015Y-63172049D01*
X191797895Y-62962394D01*
X191797895Y-62962393D01*
X191763237Y-62894375D01*
X191697815Y-62765978D01*
X191681260Y-62743192D01*
X191568247Y-62587641D01*
X191568243Y-62587636D01*
X191412363Y-62431756D01*
X191412358Y-62431752D01*
X191272745Y-62330318D01*
X191230079Y-62274989D01*
X191224100Y-62205375D01*
X191256705Y-62143580D01*
X191272745Y-62129682D01*
X191412358Y-62028247D01*
X191412356Y-62028247D01*
X191412365Y-62028242D01*
X191568242Y-61872365D01*
X191697815Y-61694022D01*
X191797895Y-61497606D01*
X191866015Y-61287951D01*
X191900500Y-61070222D01*
X191900500Y-60849778D01*
X191866015Y-60632049D01*
X191797895Y-60422394D01*
X191797895Y-60422393D01*
X191763237Y-60354375D01*
X191697815Y-60225978D01*
X191681260Y-60203192D01*
X191568247Y-60047641D01*
X191568243Y-60047636D01*
X191412363Y-59891756D01*
X191412358Y-59891752D01*
X191272745Y-59790318D01*
X191230079Y-59734989D01*
X191224100Y-59665375D01*
X191256705Y-59603580D01*
X191272745Y-59589682D01*
X191412358Y-59488247D01*
X191412356Y-59488247D01*
X191412365Y-59488242D01*
X191568242Y-59332365D01*
X191697815Y-59154022D01*
X191797895Y-58957606D01*
X191866015Y-58747951D01*
X191900500Y-58530222D01*
X191900500Y-58309778D01*
X191866015Y-58092049D01*
X191797895Y-57882394D01*
X191797895Y-57882393D01*
X191763237Y-57814375D01*
X191697815Y-57685978D01*
X191681260Y-57663192D01*
X191568247Y-57507641D01*
X191568243Y-57507636D01*
X191412363Y-57351756D01*
X191412358Y-57351752D01*
X191234025Y-57222187D01*
X191234024Y-57222186D01*
X191234022Y-57222185D01*
X191171096Y-57190122D01*
X191037606Y-57122104D01*
X191037603Y-57122103D01*
X190827952Y-57053985D01*
X190719086Y-57036742D01*
X190610222Y-57019500D01*
X190389778Y-57019500D01*
X190317201Y-57030995D01*
X190172047Y-57053985D01*
X189962396Y-57122103D01*
X189962393Y-57122104D01*
X189765974Y-57222187D01*
X189587641Y-57351752D01*
X189587636Y-57351756D01*
X189431756Y-57507636D01*
X189431752Y-57507641D01*
X189302187Y-57685974D01*
X189202104Y-57882393D01*
X189202103Y-57882396D01*
X189133985Y-58092047D01*
X189099500Y-58309778D01*
X189099500Y-58530221D01*
X189133985Y-58747952D01*
X189202103Y-58957603D01*
X189202104Y-58957606D01*
X189302187Y-59154025D01*
X189431752Y-59332358D01*
X189431756Y-59332363D01*
X189587636Y-59488243D01*
X189587641Y-59488247D01*
X189727254Y-59589682D01*
X189769920Y-59645012D01*
X189775899Y-59714625D01*
X189743293Y-59776420D01*
X189727254Y-59790318D01*
X189587641Y-59891752D01*
X189587636Y-59891756D01*
X189431756Y-60047636D01*
X189431752Y-60047641D01*
X189302187Y-60225974D01*
X189202104Y-60422393D01*
X189202103Y-60422396D01*
X189133985Y-60632047D01*
X189099500Y-60849778D01*
X189099500Y-61070221D01*
X189133985Y-61287952D01*
X189202103Y-61497603D01*
X189202104Y-61497606D01*
X189302187Y-61694025D01*
X189431752Y-61872358D01*
X189431756Y-61872363D01*
X189587636Y-62028243D01*
X189587641Y-62028247D01*
X189727254Y-62129682D01*
X189769920Y-62185012D01*
X189775899Y-62254625D01*
X189743293Y-62316420D01*
X189727254Y-62330318D01*
X189587641Y-62431752D01*
X189587636Y-62431756D01*
X189431756Y-62587636D01*
X189431752Y-62587641D01*
X189302187Y-62765974D01*
X189202104Y-62962393D01*
X189202103Y-62962396D01*
X189133985Y-63172047D01*
X189099500Y-63389778D01*
X189099500Y-63610221D01*
X189133985Y-63827952D01*
X189202103Y-64037603D01*
X189202104Y-64037606D01*
X189302187Y-64234025D01*
X189431752Y-64412358D01*
X189431756Y-64412363D01*
X189587636Y-64568243D01*
X189587641Y-64568247D01*
X189727254Y-64669682D01*
X189769920Y-64725012D01*
X189775899Y-64794625D01*
X189743293Y-64856420D01*
X189727254Y-64870318D01*
X189587641Y-64971752D01*
X189587636Y-64971756D01*
X189431756Y-65127636D01*
X189431752Y-65127641D01*
X189302187Y-65305974D01*
X189202104Y-65502393D01*
X189202103Y-65502396D01*
X189133985Y-65712047D01*
X189099500Y-65929778D01*
X189099500Y-66150221D01*
X189133985Y-66367952D01*
X189202103Y-66577603D01*
X189202104Y-66577606D01*
X189302187Y-66774025D01*
X189431752Y-66952358D01*
X189431756Y-66952363D01*
X189587636Y-67108243D01*
X189587641Y-67108247D01*
X189727254Y-67209682D01*
X189769920Y-67265012D01*
X189775899Y-67334625D01*
X189743293Y-67396420D01*
X189727254Y-67410318D01*
X189587641Y-67511752D01*
X189587636Y-67511756D01*
X189431756Y-67667636D01*
X189431752Y-67667641D01*
X189302187Y-67845974D01*
X189202104Y-68042393D01*
X189202103Y-68042396D01*
X189133985Y-68252047D01*
X189100754Y-68461859D01*
X189099500Y-68469778D01*
X189099500Y-68690222D01*
X189100747Y-68698097D01*
X189133985Y-68907952D01*
X189202103Y-69117603D01*
X189202104Y-69117606D01*
X189302187Y-69314025D01*
X189431752Y-69492358D01*
X189431756Y-69492363D01*
X189431758Y-69492365D01*
X189587635Y-69648242D01*
X189684722Y-69718779D01*
X189727388Y-69774109D01*
X189733367Y-69843723D01*
X189700762Y-69905518D01*
X189684723Y-69919415D01*
X189555069Y-70013616D01*
X189555060Y-70013623D01*
X189393622Y-70175061D01*
X189259421Y-70359771D01*
X189155770Y-70563196D01*
X189085215Y-70780339D01*
X189049500Y-71005837D01*
X189049500Y-71234162D01*
X189085215Y-71459660D01*
X189155770Y-71676803D01*
X189246068Y-71854022D01*
X189259421Y-71880228D01*
X189393621Y-72064937D01*
X189555063Y-72226379D01*
X189739772Y-72360579D01*
X189771327Y-72376657D01*
X189792751Y-72387573D01*
X189843547Y-72435548D01*
X189860342Y-72503369D01*
X189837805Y-72569503D01*
X189792753Y-72608542D01*
X189765974Y-72622186D01*
X189587641Y-72751752D01*
X189587636Y-72751756D01*
X189431756Y-72907636D01*
X189431752Y-72907641D01*
X189302187Y-73085974D01*
X189202104Y-73282393D01*
X189202103Y-73282396D01*
X189133984Y-73492047D01*
X189104688Y-73677016D01*
X189074758Y-73740151D01*
X189015447Y-73777082D01*
X188945584Y-73776084D01*
X188894534Y-73745299D01*
X186056819Y-70907584D01*
X186023334Y-70846261D01*
X186020500Y-70819903D01*
X186020500Y-62140945D01*
X186020500Y-62140943D01*
X185979577Y-61988216D01*
X185912687Y-61872358D01*
X185900524Y-61851290D01*
X185900521Y-61851286D01*
X185900520Y-61851284D01*
X185788716Y-61739480D01*
X185788715Y-61739479D01*
X185784385Y-61735149D01*
X185784374Y-61735139D01*
X182844077Y-58794842D01*
X182810592Y-58733519D01*
X182813828Y-58668841D01*
X182818477Y-58654534D01*
X182850500Y-58452352D01*
X182850500Y-58247648D01*
X182818477Y-58045466D01*
X182755220Y-57850781D01*
X182755218Y-57850778D01*
X182755218Y-57850776D01*
X182721503Y-57784607D01*
X182662287Y-57668390D01*
X182654556Y-57657749D01*
X182541971Y-57502786D01*
X182397213Y-57358028D01*
X182231613Y-57237715D01*
X182231612Y-57237714D01*
X182231610Y-57237713D01*
X182174653Y-57208691D01*
X182049223Y-57144781D01*
X181854534Y-57081522D01*
X181679995Y-57053878D01*
X181652352Y-57049500D01*
X181447648Y-57049500D01*
X181423329Y-57053351D01*
X181245465Y-57081522D01*
X181050776Y-57144781D01*
X180868386Y-57237715D01*
X180702786Y-57358028D01*
X180558028Y-57502786D01*
X180437715Y-57668386D01*
X180344781Y-57850776D01*
X180281522Y-58045465D01*
X180249500Y-58247648D01*
X180249500Y-58452351D01*
X180281522Y-58654534D01*
X180344781Y-58849223D01*
X180437715Y-59031613D01*
X180558028Y-59197213D01*
X180702786Y-59341971D01*
X180857749Y-59454556D01*
X180868390Y-59462287D01*
X180984607Y-59521503D01*
X181050776Y-59555218D01*
X181050778Y-59555218D01*
X181050781Y-59555220D01*
X181155137Y-59589127D01*
X181245465Y-59618477D01*
X181346557Y-59634488D01*
X181447648Y-59650500D01*
X181447649Y-59650500D01*
X181652351Y-59650500D01*
X181652352Y-59650500D01*
X181854534Y-59618477D01*
X181868842Y-59613827D01*
X181938682Y-59611831D01*
X181994842Y-59644077D01*
X184783181Y-62432416D01*
X184816666Y-62493739D01*
X184819500Y-62520097D01*
X184819500Y-71033330D01*
X184819499Y-71033348D01*
X184819499Y-71199054D01*
X184819498Y-71199054D01*
X184860423Y-71351785D01*
X184889358Y-71401900D01*
X184889359Y-71401904D01*
X184889360Y-71401904D01*
X184939479Y-71488714D01*
X184939481Y-71488717D01*
X185058349Y-71607585D01*
X185058355Y-71607590D01*
X189126561Y-75675796D01*
X189160046Y-75737119D01*
X189156811Y-75801794D01*
X189133985Y-75872045D01*
X189099500Y-76089778D01*
X189099500Y-76190903D01*
X189079815Y-76257942D01*
X189027011Y-76303697D01*
X188957853Y-76313641D01*
X188894297Y-76284616D01*
X188887819Y-76278584D01*
X185907590Y-73298355D01*
X185907588Y-73298352D01*
X185788717Y-73179481D01*
X185788716Y-73179480D01*
X185686621Y-73120536D01*
X185686620Y-73120535D01*
X185651783Y-73100422D01*
X185590506Y-73084003D01*
X185499057Y-73059499D01*
X185340943Y-73059499D01*
X185333347Y-73059499D01*
X185333331Y-73059500D01*
X169729068Y-73059500D01*
X169662029Y-73039815D01*
X169618583Y-72991795D01*
X169558343Y-72873567D01*
X169419517Y-72682490D01*
X169252510Y-72515483D01*
X169061433Y-72376657D01*
X169027790Y-72359515D01*
X168850996Y-72269433D01*
X168626368Y-72196446D01*
X168393097Y-72159500D01*
X168393092Y-72159500D01*
X168156908Y-72159500D01*
X168156903Y-72159500D01*
X167923631Y-72196446D01*
X167699003Y-72269433D01*
X167488566Y-72376657D01*
X167379550Y-72455862D01*
X167297490Y-72515483D01*
X167297488Y-72515485D01*
X167297487Y-72515485D01*
X167130485Y-72682487D01*
X167130485Y-72682488D01*
X167130483Y-72682490D01*
X167080161Y-72751752D01*
X166991657Y-72873566D01*
X166884433Y-73084003D01*
X166811446Y-73308631D01*
X166774500Y-73541902D01*
X161050500Y-73541902D01*
X161050500Y-68461902D01*
X166774500Y-68461902D01*
X166774500Y-68698097D01*
X166811446Y-68931368D01*
X166884433Y-69155996D01*
X166964952Y-69314022D01*
X166991657Y-69366433D01*
X167130483Y-69557510D01*
X167297490Y-69724517D01*
X167488567Y-69863343D01*
X167550676Y-69894989D01*
X167699003Y-69970566D01*
X167699005Y-69970566D01*
X167699008Y-69970568D01*
X167819412Y-70009689D01*
X167923631Y-70043553D01*
X168156903Y-70080500D01*
X168156908Y-70080500D01*
X168393097Y-70080500D01*
X168626368Y-70043553D01*
X168850992Y-69970568D01*
X169061433Y-69863343D01*
X169220673Y-69747648D01*
X179674500Y-69747648D01*
X179674500Y-69952351D01*
X179706522Y-70154534D01*
X179769781Y-70349223D01*
X179862715Y-70531613D01*
X179983028Y-70697213D01*
X180127786Y-70841971D01*
X180282749Y-70954556D01*
X180293390Y-70962287D01*
X180409607Y-71021503D01*
X180475776Y-71055218D01*
X180475778Y-71055218D01*
X180475781Y-71055220D01*
X180580137Y-71089127D01*
X180670465Y-71118477D01*
X180771557Y-71134488D01*
X180872648Y-71150500D01*
X180872649Y-71150500D01*
X181077351Y-71150500D01*
X181077352Y-71150500D01*
X181279534Y-71118477D01*
X181474219Y-71055220D01*
X181656610Y-70962287D01*
X181781892Y-70871265D01*
X181822213Y-70841971D01*
X181822215Y-70841968D01*
X181822219Y-70841966D01*
X181966966Y-70697219D01*
X181966968Y-70697215D01*
X181966971Y-70697213D01*
X182050389Y-70582396D01*
X182087287Y-70531610D01*
X182180220Y-70349219D01*
X182243477Y-70154534D01*
X182275500Y-69952352D01*
X182275500Y-69747648D01*
X182243477Y-69545466D01*
X182226223Y-69492365D01*
X182214127Y-69455137D01*
X182180220Y-69350781D01*
X182180218Y-69350778D01*
X182180218Y-69350776D01*
X182146503Y-69284607D01*
X182087287Y-69168390D01*
X182050391Y-69117606D01*
X181966971Y-69002786D01*
X181822213Y-68858028D01*
X181656611Y-68737713D01*
X181602621Y-68710203D01*
X181551825Y-68662228D01*
X181535031Y-68594407D01*
X181557569Y-68528272D01*
X181602624Y-68489233D01*
X181656349Y-68461859D01*
X181700921Y-68429474D01*
X181021447Y-67750000D01*
X181027661Y-67750000D01*
X181129394Y-67722741D01*
X181220606Y-67670080D01*
X181295080Y-67595606D01*
X181347741Y-67504394D01*
X181375000Y-67402661D01*
X181375000Y-67396447D01*
X182054474Y-68075921D01*
X182086859Y-68031349D01*
X182179755Y-67849031D01*
X182242990Y-67654417D01*
X182275000Y-67452317D01*
X182275000Y-67247682D01*
X182242990Y-67045582D01*
X182179755Y-66850968D01*
X182086859Y-66668650D01*
X182054474Y-66624077D01*
X182054474Y-66624076D01*
X181375000Y-67303551D01*
X181375000Y-67297339D01*
X181347741Y-67195606D01*
X181295080Y-67104394D01*
X181220606Y-67029920D01*
X181129394Y-66977259D01*
X181027661Y-66950000D01*
X181021446Y-66950000D01*
X181700922Y-66270524D01*
X181700921Y-66270523D01*
X181656359Y-66238147D01*
X181656350Y-66238141D01*
X181474031Y-66145244D01*
X181279417Y-66082009D01*
X181077317Y-66050000D01*
X180872683Y-66050000D01*
X180670582Y-66082009D01*
X180475968Y-66145244D01*
X180293644Y-66238143D01*
X180249077Y-66270523D01*
X180249077Y-66270524D01*
X180928554Y-66950000D01*
X180922339Y-66950000D01*
X180820606Y-66977259D01*
X180729394Y-67029920D01*
X180654920Y-67104394D01*
X180602259Y-67195606D01*
X180575000Y-67297339D01*
X180575000Y-67303553D01*
X179895524Y-66624077D01*
X179895523Y-66624077D01*
X179863143Y-66668644D01*
X179770244Y-66850968D01*
X179707009Y-67045582D01*
X179675000Y-67247682D01*
X179675000Y-67452317D01*
X179707009Y-67654417D01*
X179770244Y-67849031D01*
X179863141Y-68031350D01*
X179863147Y-68031359D01*
X179895523Y-68075921D01*
X179895524Y-68075922D01*
X180575000Y-67396446D01*
X180575000Y-67402661D01*
X180602259Y-67504394D01*
X180654920Y-67595606D01*
X180729394Y-67670080D01*
X180820606Y-67722741D01*
X180922339Y-67750000D01*
X180928553Y-67750000D01*
X180249076Y-68429474D01*
X180293652Y-68461861D01*
X180347376Y-68489234D01*
X180398172Y-68537208D01*
X180414968Y-68605028D01*
X180392431Y-68671164D01*
X180347379Y-68710203D01*
X180293386Y-68737714D01*
X180127786Y-68858028D01*
X179983028Y-69002786D01*
X179862715Y-69168386D01*
X179769781Y-69350776D01*
X179706522Y-69545465D01*
X179674500Y-69747648D01*
X169220673Y-69747648D01*
X169252510Y-69724517D01*
X169419517Y-69557510D01*
X169558343Y-69366433D01*
X169665568Y-69155992D01*
X169738553Y-68931368D01*
X169769225Y-68737713D01*
X169775500Y-68698097D01*
X169775500Y-68461902D01*
X169738553Y-68228631D01*
X169674452Y-68031350D01*
X169665568Y-68004008D01*
X169665566Y-68004005D01*
X169665566Y-68004003D01*
X169586603Y-67849031D01*
X169558343Y-67793567D01*
X169419517Y-67602490D01*
X169252510Y-67435483D01*
X169139936Y-67353693D01*
X169125403Y-67343134D01*
X169125401Y-67343132D01*
X169061436Y-67296659D01*
X169061435Y-67296658D01*
X169061433Y-67296657D01*
X168995715Y-67263172D01*
X168850996Y-67189433D01*
X168626368Y-67116446D01*
X168393097Y-67079500D01*
X168393092Y-67079500D01*
X168156908Y-67079500D01*
X168156903Y-67079500D01*
X167923631Y-67116446D01*
X167699003Y-67189433D01*
X167488566Y-67296657D01*
X167408280Y-67354989D01*
X167297490Y-67435483D01*
X167297488Y-67435485D01*
X167297487Y-67435485D01*
X167130485Y-67602487D01*
X167130485Y-67602488D01*
X167130483Y-67602490D01*
X167092756Y-67654417D01*
X166991657Y-67793566D01*
X166884433Y-68004003D01*
X166811446Y-68228631D01*
X166774500Y-68461902D01*
X161050500Y-68461902D01*
X161050500Y-60841947D01*
X166775000Y-60841947D01*
X166775000Y-61078052D01*
X166811934Y-61311247D01*
X166884897Y-61535802D01*
X166992087Y-61746174D01*
X167052338Y-61829104D01*
X167052340Y-61829105D01*
X167792037Y-61089408D01*
X167809075Y-61152993D01*
X167874901Y-61267007D01*
X167967993Y-61360099D01*
X168082007Y-61425925D01*
X168145590Y-61442962D01*
X167405893Y-62182658D01*
X167488828Y-62242914D01*
X167699197Y-62350102D01*
X167923752Y-62423065D01*
X167923751Y-62423065D01*
X168156948Y-62460000D01*
X168393052Y-62460000D01*
X168626247Y-62423065D01*
X168850802Y-62350102D01*
X169061163Y-62242918D01*
X169061169Y-62242914D01*
X169144104Y-62182658D01*
X169144105Y-62182658D01*
X168404408Y-61442962D01*
X168467993Y-61425925D01*
X168582007Y-61360099D01*
X168675099Y-61267007D01*
X168740925Y-61152993D01*
X168757962Y-61089408D01*
X169497658Y-61829105D01*
X169497658Y-61829104D01*
X169557914Y-61746169D01*
X169557918Y-61746163D01*
X169665102Y-61535802D01*
X169738065Y-61311247D01*
X169775000Y-61078052D01*
X169775000Y-60841947D01*
X169738065Y-60608752D01*
X169665102Y-60384197D01*
X169557914Y-60173828D01*
X169497658Y-60090894D01*
X169497658Y-60090893D01*
X168757962Y-60830590D01*
X168740925Y-60767007D01*
X168675099Y-60652993D01*
X168582007Y-60559901D01*
X168467993Y-60494075D01*
X168404409Y-60477037D01*
X169144105Y-59737340D01*
X169144104Y-59737338D01*
X169061174Y-59677087D01*
X168850802Y-59569897D01*
X168626247Y-59496934D01*
X168626248Y-59496934D01*
X168393052Y-59460000D01*
X168156948Y-59460000D01*
X167923752Y-59496934D01*
X167699197Y-59569897D01*
X167488830Y-59677084D01*
X167405894Y-59737340D01*
X168145591Y-60477037D01*
X168082007Y-60494075D01*
X167967993Y-60559901D01*
X167874901Y-60652993D01*
X167809075Y-60767007D01*
X167792037Y-60830591D01*
X167052340Y-60090894D01*
X166992084Y-60173830D01*
X166884897Y-60384197D01*
X166811934Y-60608752D01*
X166775000Y-60841947D01*
X161050500Y-60841947D01*
X161050500Y-55761902D01*
X166774500Y-55761902D01*
X166774500Y-55998097D01*
X166811446Y-56231368D01*
X166884433Y-56455996D01*
X166991657Y-56666433D01*
X167130483Y-56857510D01*
X167297490Y-57024517D01*
X167488567Y-57163343D01*
X167587991Y-57214002D01*
X167699003Y-57270566D01*
X167699005Y-57270566D01*
X167699008Y-57270568D01*
X167819412Y-57309689D01*
X167923631Y-57343553D01*
X168156903Y-57380500D01*
X168156908Y-57380500D01*
X168393097Y-57380500D01*
X168626368Y-57343553D01*
X168850992Y-57270568D01*
X169061433Y-57163343D01*
X169252510Y-57024517D01*
X169419517Y-56857510D01*
X169558343Y-56666433D01*
X169665568Y-56455992D01*
X169738553Y-56231368D01*
X169775500Y-55998097D01*
X169775500Y-55761902D01*
X169738553Y-55528635D01*
X169738553Y-55528632D01*
X169697547Y-55402433D01*
X169695553Y-55332593D01*
X169727796Y-55276437D01*
X173637416Y-51366819D01*
X173698739Y-51333334D01*
X173725097Y-51330500D01*
X180320398Y-51330500D01*
X180387437Y-51350185D01*
X180430883Y-51398205D01*
X180437715Y-51411614D01*
X180558028Y-51577213D01*
X180702786Y-51721971D01*
X180857749Y-51834556D01*
X180868390Y-51842287D01*
X180984607Y-51901503D01*
X181050776Y-51935218D01*
X181050778Y-51935218D01*
X181050781Y-51935220D01*
X181155137Y-51969127D01*
X181245465Y-51998477D01*
X181346557Y-52014488D01*
X181447648Y-52030500D01*
X181447649Y-52030500D01*
X181652351Y-52030500D01*
X181652352Y-52030500D01*
X181854534Y-51998477D01*
X182049219Y-51935220D01*
X182231610Y-51842287D01*
X182324590Y-51774732D01*
X182397213Y-51721971D01*
X182397215Y-51721968D01*
X182397219Y-51721966D01*
X182541966Y-51577219D01*
X182541968Y-51577215D01*
X182541971Y-51577213D01*
X182594732Y-51504590D01*
X182662287Y-51411610D01*
X182755220Y-51229219D01*
X182818477Y-51034534D01*
X182850500Y-50832352D01*
X182850500Y-50627648D01*
X182818477Y-50425466D01*
X182755220Y-50230781D01*
X182755218Y-50230778D01*
X182755218Y-50230776D01*
X182721503Y-50164607D01*
X182662287Y-50048390D01*
X182636986Y-50013566D01*
X182541971Y-49882786D01*
X182397213Y-49738028D01*
X182231613Y-49617715D01*
X182231612Y-49617714D01*
X182231610Y-49617713D01*
X182174653Y-49588691D01*
X182049223Y-49524781D01*
X181854534Y-49461522D01*
X181679995Y-49433878D01*
X181652352Y-49429500D01*
X181447648Y-49429500D01*
X181423329Y-49433351D01*
X181245465Y-49461522D01*
X181050776Y-49524781D01*
X180868386Y-49617715D01*
X180702786Y-49738028D01*
X180558028Y-49882786D01*
X180437715Y-50048385D01*
X180430883Y-50061795D01*
X180382909Y-50112591D01*
X180320398Y-50129500D01*
X173511669Y-50129500D01*
X173511653Y-50129499D01*
X173504057Y-50129499D01*
X173345943Y-50129499D01*
X173238587Y-50158265D01*
X173193210Y-50170424D01*
X173193209Y-50170425D01*
X173143096Y-50199359D01*
X173143095Y-50199360D01*
X173100412Y-50224003D01*
X173056285Y-50249479D01*
X173056282Y-50249481D01*
X172944478Y-50361286D01*
X168878563Y-54427200D01*
X168817240Y-54460685D01*
X168752564Y-54457450D01*
X168626370Y-54416447D01*
X168393097Y-54379500D01*
X168393092Y-54379500D01*
X168156908Y-54379500D01*
X168156903Y-54379500D01*
X167923631Y-54416446D01*
X167699003Y-54489433D01*
X167488566Y-54596657D01*
X167379550Y-54675862D01*
X167297490Y-54735483D01*
X167297488Y-54735485D01*
X167297487Y-54735485D01*
X167130485Y-54902487D01*
X167130485Y-54902488D01*
X167130483Y-54902490D01*
X167070862Y-54984550D01*
X166991657Y-55093566D01*
X166884433Y-55304003D01*
X166811446Y-55528631D01*
X166774500Y-55761902D01*
X161050500Y-55761902D01*
X161050500Y-50681902D01*
X166774500Y-50681902D01*
X166774500Y-50918097D01*
X166811446Y-51151368D01*
X166884433Y-51375996D01*
X166986959Y-51577213D01*
X166991657Y-51586433D01*
X167130483Y-51777510D01*
X167297490Y-51944517D01*
X167488567Y-52083343D01*
X167587991Y-52134002D01*
X167699003Y-52190566D01*
X167699005Y-52190566D01*
X167699008Y-52190568D01*
X167819412Y-52229689D01*
X167923631Y-52263553D01*
X168156903Y-52300500D01*
X168156908Y-52300500D01*
X168393097Y-52300500D01*
X168626368Y-52263553D01*
X168850992Y-52190568D01*
X169061433Y-52083343D01*
X169252510Y-51944517D01*
X169419517Y-51777510D01*
X169558343Y-51586433D01*
X169665568Y-51375992D01*
X169738553Y-51151368D01*
X169757058Y-51034534D01*
X169775500Y-50918097D01*
X169775500Y-50681902D01*
X169738553Y-50448631D01*
X169704689Y-50344412D01*
X169665568Y-50224008D01*
X169665566Y-50224005D01*
X169665566Y-50224003D01*
X169576084Y-50048386D01*
X169558343Y-50013567D01*
X169419517Y-49822490D01*
X169252510Y-49655483D01*
X169061433Y-49516657D01*
X168850996Y-49409433D01*
X168626368Y-49336446D01*
X168393097Y-49299500D01*
X168393092Y-49299500D01*
X168156908Y-49299500D01*
X168156903Y-49299500D01*
X167923631Y-49336446D01*
X167699003Y-49409433D01*
X167488566Y-49516657D01*
X167379550Y-49595862D01*
X167297490Y-49655483D01*
X167297488Y-49655485D01*
X167297487Y-49655485D01*
X167130485Y-49822487D01*
X167130485Y-49822488D01*
X167130483Y-49822490D01*
X167086679Y-49882781D01*
X166991657Y-50013566D01*
X166884433Y-50224003D01*
X166811446Y-50448631D01*
X166774500Y-50681902D01*
X161050500Y-50681902D01*
X161050500Y-41788711D01*
X165154500Y-41788711D01*
X165154500Y-42031288D01*
X165186161Y-42271785D01*
X165248947Y-42506104D01*
X165341773Y-42730205D01*
X165341776Y-42730212D01*
X165463064Y-42940289D01*
X165463066Y-42940292D01*
X165463067Y-42940293D01*
X165610733Y-43132736D01*
X165610739Y-43132743D01*
X165782256Y-43304260D01*
X165782262Y-43304265D01*
X165974711Y-43451936D01*
X166184788Y-43573224D01*
X166408900Y-43666054D01*
X166643211Y-43728838D01*
X166823586Y-43752584D01*
X166883711Y-43760500D01*
X166883712Y-43760500D01*
X167126289Y-43760500D01*
X167174388Y-43754167D01*
X167366789Y-43728838D01*
X167601100Y-43666054D01*
X167825212Y-43573224D01*
X168035289Y-43451936D01*
X168227738Y-43304265D01*
X168399265Y-43132738D01*
X168546936Y-42940289D01*
X168668224Y-42730212D01*
X168761054Y-42506100D01*
X168823838Y-42271789D01*
X168855500Y-42031288D01*
X168855500Y-41788712D01*
X168855500Y-41788711D01*
X214049500Y-41788711D01*
X214049500Y-42031288D01*
X214081161Y-42271785D01*
X214143947Y-42506104D01*
X214236773Y-42730205D01*
X214236776Y-42730212D01*
X214358064Y-42940289D01*
X214358066Y-42940292D01*
X214358067Y-42940293D01*
X214505733Y-43132736D01*
X214505739Y-43132743D01*
X214677256Y-43304260D01*
X214677262Y-43304265D01*
X214869711Y-43451936D01*
X215079788Y-43573224D01*
X215303900Y-43666054D01*
X215538211Y-43728838D01*
X215718586Y-43752584D01*
X215778711Y-43760500D01*
X215778712Y-43760500D01*
X216021289Y-43760500D01*
X216069388Y-43754167D01*
X216261789Y-43728838D01*
X216496100Y-43666054D01*
X216720212Y-43573224D01*
X216930289Y-43451936D01*
X217122738Y-43304265D01*
X217294265Y-43132738D01*
X217441936Y-42940289D01*
X217563224Y-42730212D01*
X217656054Y-42506100D01*
X217718838Y-42271789D01*
X217750500Y-42031288D01*
X217750500Y-41788712D01*
X217718838Y-41548211D01*
X217656054Y-41313900D01*
X217563224Y-41089788D01*
X217441936Y-40879711D01*
X217294265Y-40687262D01*
X217294260Y-40687256D01*
X217122743Y-40515739D01*
X217122736Y-40515733D01*
X216930293Y-40368067D01*
X216930292Y-40368066D01*
X216930289Y-40368064D01*
X216720212Y-40246776D01*
X216720205Y-40246773D01*
X216496104Y-40153947D01*
X216261785Y-40091161D01*
X216021289Y-40059500D01*
X216021288Y-40059500D01*
X215778712Y-40059500D01*
X215778711Y-40059500D01*
X215538214Y-40091161D01*
X215303895Y-40153947D01*
X215079794Y-40246773D01*
X215079785Y-40246777D01*
X214869706Y-40368067D01*
X214677263Y-40515733D01*
X214677256Y-40515739D01*
X214505739Y-40687256D01*
X214505733Y-40687263D01*
X214358067Y-40879706D01*
X214236777Y-41089785D01*
X214236773Y-41089794D01*
X214143947Y-41313895D01*
X214081161Y-41548214D01*
X214049500Y-41788711D01*
X168855500Y-41788711D01*
X168823838Y-41548211D01*
X168761054Y-41313900D01*
X168668224Y-41089788D01*
X168546936Y-40879711D01*
X168399265Y-40687262D01*
X168399260Y-40687256D01*
X168227743Y-40515739D01*
X168227736Y-40515733D01*
X168035293Y-40368067D01*
X168035292Y-40368066D01*
X168035289Y-40368064D01*
X167825212Y-40246776D01*
X167825205Y-40246773D01*
X167601104Y-40153947D01*
X167366785Y-40091161D01*
X167126289Y-40059500D01*
X167126288Y-40059500D01*
X166883712Y-40059500D01*
X166883711Y-40059500D01*
X166643214Y-40091161D01*
X166408895Y-40153947D01*
X166184794Y-40246773D01*
X166184785Y-40246777D01*
X165974706Y-40368067D01*
X165782263Y-40515733D01*
X165782256Y-40515739D01*
X165610739Y-40687256D01*
X165610733Y-40687263D01*
X165463067Y-40879706D01*
X165341777Y-41089785D01*
X165341773Y-41089794D01*
X165248947Y-41313895D01*
X165186161Y-41548214D01*
X165154500Y-41788711D01*
X161050500Y-41788711D01*
X161050500Y-36374500D01*
X161070185Y-36307461D01*
X161122989Y-36261706D01*
X161174500Y-36250500D01*
X225925500Y-36250500D01*
X225992539Y-36270185D01*
G37*
%TD.AperFunction*%
%TD*%
M02*
