%TF.GenerationSoftware,KiCad,Pcbnew,9.0.2*%
%TF.CreationDate,2025-07-10T18:49:31+01:00*%
%TF.ProjectId,Temperature-Controller,54656d70-6572-4617-9475-72652d436f6e,rev?*%
%TF.SameCoordinates,Original*%
%TF.FileFunction,Plated,1,2,PTH,Drill*%
%TF.FilePolarity,Positive*%
%FSLAX46Y46*%
G04 Gerber Fmt 4.6, Leading zero omitted, Abs format (unit mm)*
G04 Created by KiCad (PCBNEW 9.0.2) date 2025-07-10 18:49:31*
%MOMM*%
%LPD*%
G01*
G04 APERTURE LIST*
%TA.AperFunction,ComponentDrill*%
%ADD10C,0.800000*%
%TD*%
%TA.AperFunction,ComponentDrill*%
%ADD11C,1.000000*%
%TD*%
G04 APERTURE END LIST*
D10*
%TO.C,C1*%
X179110000Y-93980000D03*
%TO.C,R3*%
X180340000Y-79248000D03*
X180340000Y-86868000D03*
%TO.C,C2*%
X180975000Y-67350000D03*
X180975000Y-69850000D03*
%TO.C,R1*%
X181550000Y-50730000D03*
X181550000Y-58350000D03*
%TO.C,C1*%
X181610000Y-93980000D03*
%TO.C,R2*%
X182245000Y-102235000D03*
X182245000Y-109855000D03*
%TO.C,R4*%
X189992000Y-116840000D03*
%TO.C,U1*%
X190500000Y-58420000D03*
X190500000Y-60960000D03*
X190500000Y-63500000D03*
X190500000Y-66040000D03*
X190500000Y-68580000D03*
X190500000Y-71120000D03*
X190500000Y-73820000D03*
X190500000Y-76200000D03*
X190500000Y-78740000D03*
X190500000Y-81280000D03*
X190500000Y-83820000D03*
X190500000Y-86360000D03*
X190500000Y-88900000D03*
X190500000Y-91440000D03*
X190500000Y-93980000D03*
%TO.C,C3*%
X193080000Y-111760000D03*
X195580000Y-111760000D03*
%TO.C,R4*%
X197612000Y-116840000D03*
%TO.C,R5*%
X201422000Y-116332000D03*
%TO.C,C5*%
X208320000Y-111252000D03*
%TO.C,R5*%
X209042000Y-116332000D03*
%TO.C,C5*%
X210820000Y-111252000D03*
%TO.C,U1*%
X215900000Y-58420000D03*
X215900000Y-60960000D03*
X215900000Y-63500000D03*
X215900000Y-66040000D03*
X215900000Y-68580000D03*
X215900000Y-71120000D03*
X215900000Y-73820000D03*
X215900000Y-76200000D03*
X215900000Y-78740000D03*
X215900000Y-81280000D03*
X215900000Y-83820000D03*
X215900000Y-86360000D03*
X215900000Y-88900000D03*
X215900000Y-91440000D03*
X215900000Y-93980000D03*
D11*
%TO.C,J1*%
X168275000Y-50800000D03*
X168275000Y-55880000D03*
X168275000Y-60960000D03*
%TO.C,J3*%
X168275000Y-68580000D03*
X168275000Y-73660000D03*
%TO.C,J2*%
X168275000Y-81280000D03*
X168275000Y-86360000D03*
X168275000Y-91440000D03*
%TO.C,J4*%
X168275000Y-100965000D03*
X168275000Y-106045000D03*
%TO.C,J6*%
X168350000Y-114270000D03*
X168350000Y-119350000D03*
%TO.C,J5*%
X193548000Y-124460000D03*
X198628000Y-124460000D03*
X203708000Y-124460000D03*
M02*
