%TF.GenerationSoftware,KiCad,Pcbnew,9.0.2*%
%TF.CreationDate,2025-07-10T18:40:00+01:00*%
%TF.ProjectId,Temperature-Controller,54656d70-6572-4617-9475-72652d436f6e,rev?*%
%TF.SameCoordinates,Original*%
%TF.FileFunction,Soldermask,Top*%
%TF.FilePolarity,Negative*%
%FSLAX46Y46*%
G04 Gerber Fmt 4.6, Leading zero omitted, Abs format (unit mm)*
G04 Created by KiCad (PCBNEW 9.0.2) date 2025-07-10 18:40:00*
%MOMM*%
%LPD*%
G01*
G04 APERTURE LIST*
G04 Aperture macros list*
%AMRoundRect*
0 Rectangle with rounded corners*
0 $1 Rounding radius*
0 $2 $3 $4 $5 $6 $7 $8 $9 X,Y pos of 4 corners*
0 Add a 4 corners polygon primitive as box body*
4,1,4,$2,$3,$4,$5,$6,$7,$8,$9,$2,$3,0*
0 Add four circle primitives for the rounded corners*
1,1,$1+$1,$2,$3*
1,1,$1+$1,$4,$5*
1,1,$1+$1,$6,$7*
1,1,$1+$1,$8,$9*
0 Add four rect primitives between the rounded corners*
20,1,$1+$1,$2,$3,$4,$5,0*
20,1,$1+$1,$4,$5,$6,$7,0*
20,1,$1+$1,$6,$7,$8,$9,0*
20,1,$1+$1,$8,$9,$2,$3,0*%
G04 Aperture macros list end*
%ADD10C,2.000000*%
%ADD11C,1.600000*%
%ADD12RoundRect,0.250000X0.550000X0.550000X-0.550000X0.550000X-0.550000X-0.550000X0.550000X-0.550000X0*%
%ADD13C,1.800000*%
%ADD14C,1.900000*%
%ADD15C,3.200000*%
G04 APERTURE END LIST*
D10*
%TO.C,J2*%
X168275000Y-81280000D03*
X168275000Y-86360000D03*
X168275000Y-91440000D03*
%TD*%
D11*
%TO.C,C3*%
X193080000Y-111760000D03*
X195580000Y-111760000D03*
%TD*%
D12*
%TO.C,C1*%
X181610000Y-93980000D03*
D11*
X179110000Y-93980000D03*
%TD*%
D13*
%TO.C,U1*%
X190500000Y-58420000D03*
X190500000Y-60960000D03*
X190500000Y-63500000D03*
X190500000Y-66040000D03*
X190500000Y-68580000D03*
D14*
X190500000Y-71120000D03*
D13*
X190500000Y-73820000D03*
X190500000Y-76200000D03*
X190500000Y-81280000D03*
X190500000Y-78740000D03*
X190500000Y-83820000D03*
X190500000Y-86360000D03*
X190500000Y-88900000D03*
X190500000Y-91440000D03*
X190500000Y-93980000D03*
X215900000Y-58420000D03*
X215900000Y-60960000D03*
X215900000Y-63500000D03*
X215900000Y-66040000D03*
X215900000Y-68580000D03*
X215900000Y-71120000D03*
X215900000Y-73820000D03*
X215900000Y-76200000D03*
X215900000Y-78740000D03*
X215900000Y-81280000D03*
X215900000Y-83820000D03*
X215900000Y-86360000D03*
X215900000Y-88900000D03*
X215900000Y-91440000D03*
X215900000Y-93980000D03*
%TD*%
D15*
%TO.C,H3*%
X167005000Y-128905000D03*
%TD*%
D11*
%TO.C,R2*%
X182245000Y-109855000D03*
X182245000Y-102235000D03*
%TD*%
%TO.C,R1*%
X181550000Y-50730000D03*
X181550000Y-58350000D03*
%TD*%
%TO.C,C2*%
X180975000Y-69850000D03*
X180975000Y-67350000D03*
%TD*%
D15*
%TO.C,H2*%
X215900000Y-41910000D03*
%TD*%
%TO.C,H1*%
X167005000Y-41910000D03*
%TD*%
D10*
%TO.C,J3*%
X168275000Y-68580000D03*
X168275000Y-73660000D03*
%TD*%
D11*
%TO.C,C5*%
X208320000Y-111252000D03*
X210820000Y-111252000D03*
%TD*%
%TO.C,R3*%
X180340000Y-79248000D03*
X180340000Y-86868000D03*
%TD*%
%TO.C,R4*%
X197612000Y-116840000D03*
X189992000Y-116840000D03*
%TD*%
%TO.C,R5*%
X209042000Y-116332000D03*
X201422000Y-116332000D03*
%TD*%
D15*
%TO.C,H4*%
X215900000Y-128905000D03*
%TD*%
D10*
%TO.C,J1*%
X168275000Y-50800000D03*
X168275000Y-55880000D03*
X168275000Y-60960000D03*
%TD*%
%TO.C,J5*%
X193548000Y-124460000D03*
X198628000Y-124460000D03*
X203708000Y-124460000D03*
%TD*%
%TO.C,J4*%
X168275000Y-100965000D03*
X168275000Y-106045000D03*
%TD*%
%TO.C,J6*%
X168350000Y-114270000D03*
X168350000Y-119350000D03*
%TD*%
M02*
